<svg width="126" height="97" viewBox="0 0 126 97" fill="none" xmlns="http://www.w3.org/2000/svg">
<path d="M28.2524 27.1412L4.93701 43.2942L27.9017 78.8518L51.2172 62.6988L28.2524 27.1412Z" fill="#F5F5F5"/>
<path d="M39.1686 61.0145L38.9047 62.7104L27.3138 60.9801L27.5777 59.2842L39.1686 61.0145Z" fill="#E0E0E0"/>
<path d="M33.3317 54.9648L34.994 55.2123L33.1509 67.032L31.4865 66.7824L33.3317 54.9648Z" fill="#E0E0E0"/>
<path d="M22.6655 39.9427C22.6821 39.9664 20.3465 41.6171 17.4478 43.6229C14.549 45.6287 12.1864 47.2385 12.1698 47.2127C12.1531 47.1869 14.4888 45.5383 17.3875 43.5303C20.2862 41.5224 22.6385 39.9169 22.6655 39.9427Z" fill="#E0E0E0"/>
<path d="M31.2308 37.7131C31.2474 37.7389 27.3616 40.4592 22.5533 43.7908C17.7449 47.1224 13.8259 49.8018 13.8134 49.7781C13.8009 49.7544 17.6784 47.0298 22.493 43.6982C27.3076 40.3667 31.2142 37.6872 31.2308 37.7131Z" fill="#E0E0E0"/>
<path d="M32.9493 40.3732C32.9659 40.3991 29.0802 43.1215 24.2718 46.4531C19.4634 49.7846 15.5444 52.4641 15.5319 52.4383C15.5194 52.4124 19.401 49.6921 24.2115 46.3584C29.022 43.0247 32.9327 40.3474 32.9493 40.3732Z" fill="#E0E0E0"/>
<path d="M34.6678 43.0353C34.6844 43.0612 30.7986 45.7837 25.9902 49.1131C21.1818 52.4425 17.2628 55.1262 17.2628 55.1004C17.2628 55.0745 21.1299 52.3521 25.9404 49.0205C30.7508 45.689 34.6511 43.0095 34.6678 43.0353Z" fill="#E0E0E0"/>
<path d="M36.38 45.6977C36.3966 45.7235 32.5108 48.4438 27.7024 51.7754C22.894 55.107 18.975 57.7864 18.9646 57.7606C18.9542 57.7347 22.8379 55.0144 27.6525 51.6829C32.4672 48.3513 36.38 45.6719 36.38 45.6977Z" fill="#E0E0E0"/>
<path d="M106.216 50.9675L86.6348 64.5334L105.921 94.3952L125.502 80.8293L106.216 50.9675Z" fill="#F5F5F5"/>
<path d="M115.384 79.42L115.161 80.8447L105.426 79.392L105.651 77.9673L115.384 79.42Z" fill="#E0E0E0"/>
<path d="M110.482 74.3386L111.878 74.5474L110.33 84.4732L108.932 84.2644L110.482 74.3386Z" fill="#E0E0E0"/>
<path d="M101.516 61.7334C101.532 61.7592 99.5727 63.1474 97.1373 64.8325C94.702 66.5177 92.7154 67.8649 92.6988 67.8455C92.6822 67.8262 94.6438 66.4337 97.0771 64.7464C99.5104 63.0591 101.499 61.6968 101.516 61.7334Z" fill="#E0E0E0"/>
<path d="M108.716 59.8503C108.732 59.8761 105.472 62.1661 101.443 64.9617C97.4135 67.7574 94.1158 70.0085 94.0992 69.9827C94.0826 69.9569 97.3429 67.667 101.372 64.8692C105.401 62.0713 108.693 59.8245 108.716 59.8503Z" fill="#E0E0E0"/>
<path d="M110.16 62.0842C110.176 62.11 106.916 64.3999 102.887 67.1977C98.8578 69.9955 95.5601 72.2424 95.5435 72.2166C95.5269 72.1908 98.7768 69.9116 102.816 67.1138C106.856 64.316 110.147 62.0605 110.16 62.0842Z" fill="#E0E0E0"/>
<path d="M111.602 64.3161C111.619 64.3419 108.356 66.6318 104.329 69.4296C100.302 72.2274 97.0023 74.4743 96.9857 74.4485C96.969 74.4227 100.229 72.1349 104.259 69.3349C108.288 66.535 111.587 64.2945 111.602 64.3161Z" fill="#E0E0E0"/>
<path d="M113.057 66.5564C113.073 66.5822 109.813 68.87 105.784 71.6678C101.755 74.4656 98.4569 76.7124 98.4402 76.6888C98.4236 76.6651 101.684 74.373 105.713 71.5752C109.742 68.7774 113.03 66.5305 113.057 66.5564Z" fill="#E0E0E0"/>
<path d="M53.8688 16.6113L37.0438 49.1943L58.4089 61.0288L75.2339 28.4458L53.8688 16.6113Z" fill="#F5F5F5"/>
<path d="M54.7532 50.837L53.3984 51.3169L49.9573 41.4665L51.3142 40.9844L54.7532 50.837Z" fill="#E0E0E0"/>
<path d="M56.8313 43.7693L57.3258 45.1833L47.8794 48.5342L47.3849 47.1202L56.8313 43.7693Z" fill="#E0E0E0"/>
<path d="M63.543 29.2357C63.5264 29.268 61.3612 28.1015 58.7035 26.6316C56.0458 25.1617 53.9075 23.9414 53.9242 23.9091C53.9408 23.8768 56.1081 25.0433 58.7658 26.5132C61.4235 27.9831 63.5596 29.2013 63.543 29.2357Z" fill="#E0E0E0"/>
<path d="M68.6714 35.0961C68.6548 35.1284 65.0682 33.1742 60.6609 30.7337C56.2535 28.2931 52.6961 26.2873 52.7127 26.255C52.7293 26.2228 56.3138 28.1748 60.7211 30.6175C65.1285 33.0602 68.688 35.0639 68.6714 35.0961Z" fill="#E0E0E0"/>
<path d="M67.4121 37.5346C67.3955 37.5669 63.8089 35.6149 59.4016 33.1722C54.9943 30.7295 51.4368 28.7258 51.4534 28.6935C51.47 28.6612 55.0545 30.6154 59.4619 33.056C63.8692 35.4965 67.4288 37.5023 67.4121 37.5346Z" fill="#E0E0E0"/>
<path d="M66.1529 39.9728C66.1363 40.0051 62.5498 38.0531 58.1425 35.6125C53.7351 33.172 50.1777 31.1726 50.1943 31.1339C50.2109 31.0951 53.7954 33.0536 58.2027 35.4942C62.61 37.9347 66.1696 39.9405 66.1529 39.9728Z" fill="#E0E0E0"/>
<path d="M64.8937 42.4114C64.8771 42.4436 61.2905 40.4916 56.8832 38.0511C52.4758 35.6105 48.9163 33.6047 48.935 33.5724C48.9537 33.5401 52.5361 35.4922 56.9435 37.9327C61.3508 40.3732 64.9103 42.3791 64.8937 42.4114Z" fill="#E0E0E0"/>
<path opacity="0.2" d="M65.0038 0.827148H64.4677V10.2924H65.0038V0.827148Z" fill="black"/>
<path d="M52.2202 21.744H77.2513C77.2513 21.744 74.9406 10.2966 64.5466 10.2966C55.3018 10.2966 52.2202 21.744 52.2202 21.744Z" fill="#3E79D6"/>
<path d="M65.0038 0.827148H64.4677V10.2924H65.0038V0.827148Z" fill="#3E79D6"/>
<path d="M120.469 95.4859C120.469 95.516 93.611 95.5418 60.4864 95.5418C27.3617 95.5418 0.5 95.5225 0.5 95.4859C0.5 95.4493 27.3534 95.4299 60.4864 95.4299C93.6194 95.4299 120.469 95.4536 120.469 95.4859Z" fill="#263238"/>
<path d="M7.14112 82.0068C7.85096 82.0598 8.5095 82.4094 8.96556 82.9753C9.41436 83.5387 9.73216 84.2014 9.8944 84.9122C10.2456 86.2724 10.0295 87.8801 9.65544 89.2338C8.23412 88.7065 7.35514 87.1354 6.9541 86.309C6.33072 85.0048 5.95876 82.25 7.13488 82.0046" fill="#3E79D6"/>
<path d="M11.7022 90.8845C11.2677 90.1867 11.228 89.301 11.5983 88.5645C11.9772 87.8405 12.6211 87.3047 13.3853 87.0774C13.7323 86.9654 14.1355 86.9202 14.4368 87.129C14.7134 87.3457 14.8543 87.7011 14.8046 88.0566C14.75 88.4062 14.6066 88.7346 14.389 89.0078C13.697 89.9785 12.8575 90.7855 11.6876 90.8845" fill="#3E79D6"/>
<path d="M11.8601 95.4321C11.8293 95.3407 11.8077 95.2462 11.7957 95.1502C11.7583 94.9479 11.7084 94.6874 11.6481 94.3754C11.4616 93.5209 11.4097 92.6408 11.4944 91.7691C11.5924 90.8932 11.9145 90.0603 12.4274 89.3565C12.5841 89.1461 12.7648 88.956 12.9656 88.7905C13.0201 88.7457 13.077 88.7041 13.136 88.6657C13.1547 88.6496 13.1757 88.6365 13.1983 88.627C12.9355 88.8595 12.6953 89.1183 12.4814 89.3996C11.9955 90.104 11.6896 90.9244 11.592 91.7842C11.459 92.7871 11.6232 93.706 11.7188 94.3668C11.7687 94.696 11.8102 94.9629 11.8331 95.148C11.8495 95.2418 11.8585 95.3368 11.8601 95.4321Z" fill="#263238"/>
<path d="M7.59827 84.0793C7.62199 84.1133 7.64155 84.1501 7.65645 84.1891C7.69385 84.2752 7.74373 84.3828 7.80191 84.5184C7.92867 84.8046 8.10529 85.22 8.31931 85.7344C8.74737 86.7652 9.32089 88.1986 9.91933 89.7955C10.5178 91.3924 11.0269 92.8494 11.3739 93.9104C11.5526 94.4399 11.6918 94.8703 11.7895 95.1695C11.8331 95.3115 11.8664 95.4256 11.8934 95.5138C11.9082 95.5534 11.9187 95.5945 11.9245 95.6365C11.9035 95.6 11.8867 95.5609 11.8747 95.5203C11.8435 95.4342 11.804 95.3222 11.7521 95.1824L11.3136 93.9341C10.9417 92.8817 10.4222 91.4269 9.82581 89.8321C9.22943 88.2373 8.66423 86.7997 8.25279 85.7623C8.04499 85.2523 7.88499 84.8369 7.76655 84.5335C7.71253 84.3957 7.66889 84.286 7.63563 84.1977C7.62007 84.1594 7.60755 84.1198 7.59827 84.0793Z" fill="#263238"/>
<path d="M10.1707 92.4233C9.3033 90.9275 7.79356 89.9558 6.11458 89.8127C5.69898 89.7826 5.18782 89.8557 5.0008 90.2431C4.81378 90.6305 5.06314 91.104 5.3499 91.4182C6.59576 92.7681 8.50316 93.2095 10.1853 92.5373" fill="#3E79D6"/>
<path d="M6.75453 90.9792C6.84263 90.9747 6.93095 90.9783 7.01843 90.99C7.12087 90.9957 7.22289 91.0079 7.32389 91.0265C7.44233 91.0502 7.58155 91.0631 7.72701 91.1062C7.88959 91.1418 8.04991 91.1878 8.20701 91.2439C8.38903 91.3045 8.56737 91.3764 8.74105 91.4591C9.14053 91.6445 9.51836 91.8763 9.8673 92.15C10.2122 92.4302 10.5246 92.7509 10.7982 93.1055C10.9164 93.2599 11.0253 93.4216 11.1245 93.5898C11.2141 93.735 11.2959 93.8851 11.3697 94.0396C11.4321 94.1653 11.4876 94.2947 11.5359 94.427C11.5776 94.5249 11.613 94.6255 11.6419 94.7283C11.6727 94.8141 11.6956 94.9027 11.7105 94.993C11.6876 94.993 11.5879 94.6228 11.3073 94.0719C11.2309 93.9239 11.147 93.7802 11.0559 93.6414C10.9546 93.4784 10.845 93.3211 10.7276 93.1701C10.1841 92.4745 9.49097 91.9202 8.70367 91.5517C8.52289 91.4699 8.35041 91.3924 8.18211 91.3365C8.02759 91.2782 7.87013 91.2286 7.71041 91.188C7.12857 91.0222 6.75245 91.0029 6.75453 90.9792Z" fill="#263238"/>
<path d="M101.079 23.5282C100.468 23.6724 100.171 24.402 100.113 25.0477C100.055 25.6933 100.134 26.3777 99.8717 26.9674C99.5766 27.6302 98.8722 28.121 98.8493 28.8505C98.8348 29.296 99.0904 29.7114 99.0779 30.1612C99.0571 30.8929 98.3381 31.4525 98.2987 32.1756C98.2716 32.7029 98.6104 33.2065 98.5293 33.7273C98.467 34.1319 98.1615 34.4505 98.0327 34.8379C97.7771 35.6126 98.2904 36.4627 98.9574 36.8975C100.375 37.8205 102.246 37.3786 103.138 35.9105C103.229 35.7603 103.308 35.6023 103.373 35.4383C103.743 34.5086 103.662 33.4605 103.581 32.4597C103.331 29.3376 103.146 26.2113 103.024 23.0806" fill="#263238"/>
<path d="M99.3044 34.5429C99.4302 34.462 99.5282 34.3424 99.585 34.2007C99.6449 34.0323 99.669 33.8525 99.6556 33.6735C99.6329 33.4362 99.5819 33.2027 99.5039 32.9783C99.4045 32.6963 99.3676 32.3947 99.3959 32.0959C99.4478 31.7602 99.6806 31.4847 99.8904 31.2135C100.003 31.0808 100.098 30.9323 100.171 30.7723C100.244 30.6106 100.256 30.4262 100.204 30.2558C100.096 29.905 99.7637 29.6468 99.612 29.24C99.5407 29.0386 99.5291 28.8198 99.5787 28.6116C99.6259 28.4163 99.6957 28.2277 99.7865 28.0499C99.962 27.7295 100.101 27.3894 100.202 27.0362C100.348 26.3539 100.279 25.7018 100.379 25.166C100.434 24.7368 100.618 24.3363 100.904 24.021C100.986 23.9361 101.078 23.8636 101.179 23.8058C101.214 23.787 101.251 23.7733 101.289 23.7649C101.159 23.8392 101.039 23.9319 100.934 24.0404C100.668 24.3589 100.501 24.7524 100.454 25.1703C100.417 25.4557 100.398 25.7432 100.395 26.0311C100.395 26.37 100.363 26.708 100.3 27.0405C100.201 27.4018 100.061 27.7499 99.8842 28.0778C99.7284 28.4157 99.585 28.8117 99.7221 29.1819C99.8593 29.5521 100.19 29.8082 100.316 30.2042C100.374 30.3998 100.36 30.6104 100.277 30.796C100.196 30.9721 100.091 31.1351 99.9653 31.2803C99.7575 31.5514 99.531 31.8097 99.4811 32.111C99.452 32.3968 99.4846 32.6857 99.5767 32.9568C99.6509 33.1881 99.697 33.4282 99.7138 33.6713C99.7241 33.8586 99.6921 34.0457 99.6203 34.218C99.5756 34.3259 99.5039 34.4196 99.4125 34.4891C99.38 34.5138 99.3433 34.5321 99.3044 34.5429Z" fill="#455A64"/>
<path d="M97.6796 39.6458L95.8095 45.2414L87.9881 45.6718L86.6831 48.6849L94.8495 49.5457C96.426 50.2161 98.2287 49.4358 98.8759 47.803C98.8938 47.758 98.9106 47.7126 98.9264 47.6669L101.106 41.3654L97.6796 39.6458Z" fill="#B78876"/>
<path d="M113.848 92.4449C113.848 92.4449 108.117 73.5876 107.995 72.9764C107.884 72.4211 110.073 58.8517 110.351 55.3286L102.606 55.6278V55.7074L99.3149 55.8968L102.261 94.4464H105.825L105.472 81.6518C107.67 87.7618 110.821 93.9902 110.821 93.9902L113.848 92.4449Z" fill="#B78876"/>
<path d="M105.617 86.2424C105.617 86.1262 105.574 81.9553 105.574 81.9553C105.53 82.2049 104.209 78.3353 104.24 78.1007C104.256 77.978 105.617 86.2424 105.617 86.2424Z" fill="#A36957"/>
<path d="M104.09 76.2671C104.072 76.3438 104.064 76.4228 104.067 76.5017C104.056 76.7167 104.056 76.9323 104.067 77.1473C104.067 77.2829 104.086 77.4293 104.103 77.5885C104.119 77.7478 104.142 77.9156 104.177 78.09C104.251 78.4707 104.349 78.8459 104.47 79.2134C104.728 79.9946 105.015 80.6769 105.216 81.1719C105.312 81.3871 105.395 81.5916 105.466 81.7551C105.491 81.8312 105.526 81.9036 105.57 81.9703C105.558 81.896 105.537 81.8235 105.507 81.7551C105.459 81.6131 105.387 81.4086 105.299 81.1568C105.117 80.6532 104.842 79.9645 104.587 79.1919C104.466 78.8298 104.367 78.4604 104.29 78.0857C104.252 77.9135 104.227 77.7478 104.204 77.5928C104.181 77.4379 104.165 77.2915 104.154 77.1624C104.13 76.8955 104.119 76.6803 104.113 76.5296C104.117 76.4415 104.109 76.3531 104.09 76.2671Z" fill="#A36957"/>
<path d="M102.195 94.6424V94.2958L105.846 94.1301L105.856 95.5613L105.632 95.5764C104.628 95.6367 100.531 95.8131 99.8615 95.6044C99.1114 95.3719 102.195 94.6424 102.195 94.6424Z" fill="#455A64"/>
<path d="M105.904 95.4751C105.883 95.4765 105.863 95.4765 105.842 95.4751L105.663 95.488L105.002 95.5181C104.445 95.5418 103.675 95.5633 102.825 95.5676C101.975 95.572 101.202 95.5569 100.643 95.5397L99.9841 95.5117H99.8033H99.741C99.7617 95.5099 99.7826 95.5099 99.8033 95.5117H99.9841L100.645 95.5246C101.202 95.5246 101.973 95.5418 102.823 95.5375C103.672 95.5332 104.445 95.5182 105.002 95.5031L105.663 95.4859H105.904V95.4751Z" fill="#263238"/>
<path d="M101.004 95.5956C100.974 95.483 100.932 95.3741 100.88 95.2706C100.814 95.1753 100.738 95.0879 100.653 95.0103C100.767 95.0522 100.861 95.1367 100.917 95.247C100.986 95.3485 101.017 95.4723 101.004 95.5956Z" fill="#263238"/>
<path d="M102.081 95.0296C102.081 95.0296 102.02 94.9715 101.966 94.8854C101.912 94.7993 101.879 94.724 101.89 94.7175C101.9 94.711 101.95 94.7734 102.004 94.8595C102.058 94.9456 102.091 95.0231 102.081 95.0296Z" fill="#263238"/>
<path d="M102.376 94.877C102.376 94.8877 102.309 94.8468 102.247 94.7887C102.185 94.7306 102.139 94.6768 102.147 94.6682C102.156 94.6596 102.214 94.6983 102.276 94.7564C102.338 94.8145 102.384 94.8576 102.376 94.877Z" fill="#263238"/>
<path d="M102.561 94.5109C102.5 94.5341 102.434 94.5429 102.37 94.5367C102.306 94.5455 102.241 94.5388 102.18 94.5173C102.241 94.4943 102.305 94.4854 102.37 94.4915C102.434 94.4824 102.499 94.489 102.561 94.5109Z" fill="#263238"/>
<path d="M102.623 94.2614C102.561 94.303 102.489 94.3254 102.415 94.326C102.345 94.3356 102.273 94.3252 102.208 94.2958C102.276 94.2839 102.346 94.2781 102.415 94.2786C102.484 94.2659 102.553 94.2602 102.623 94.2614Z" fill="#263238"/>
<path d="M101.958 94.7004C101.88 94.7155 101.801 94.7155 101.723 94.7004C101.639 94.6899 101.556 94.6712 101.476 94.6445C101.426 94.6302 101.378 94.61 101.333 94.5842C101.305 94.5673 101.284 94.5405 101.274 94.5089C101.267 94.4722 101.28 94.4342 101.31 94.412C101.525 94.3043 101.783 94.3973 101.887 94.6198C101.899 94.6464 101.909 94.6741 101.916 94.7026C101.921 94.7239 101.921 94.7458 101.916 94.7672C101.893 94.6894 101.856 94.6165 101.808 94.5519C101.753 94.4875 101.681 94.4411 101.601 94.4185C101.509 94.3877 101.409 94.3955 101.322 94.44C101.287 94.468 101.301 94.5132 101.341 94.539C101.383 94.5628 101.428 94.5822 101.474 94.5971C101.552 94.6237 101.632 94.6446 101.713 94.6595C101.869 94.694 101.958 94.694 101.958 94.7004Z" fill="#263238"/>
<path d="M101.898 94.7133C101.867 94.6634 101.857 94.6032 101.869 94.5454C101.876 94.4821 101.898 94.4216 101.933 94.369C101.973 94.2959 102.046 94.2488 102.126 94.2441C102.175 94.2559 102.207 94.3048 102.199 94.3561C102.194 94.3946 102.18 94.4314 102.16 94.4637C102.128 94.5171 102.091 94.5668 102.049 94.6122C102.013 94.6551 101.968 94.6883 101.916 94.709C101.916 94.709 101.962 94.666 102.027 94.5885C102.064 94.5441 102.097 94.4958 102.124 94.4443C102.155 94.3926 102.178 94.3001 102.124 94.2893C102.07 94.2786 102.008 94.3453 101.973 94.3926C101.94 94.4393 101.917 94.493 101.906 94.5498C101.898 94.6038 101.895 94.6587 101.898 94.7133Z" fill="#263238"/>
<path d="M105.827 94.4465C105.827 94.4465 105.723 94.4465 105.559 94.4572C105.123 94.5113 104.755 94.8177 104.609 95.2471C104.555 95.4085 104.551 95.5182 104.543 95.5161C104.535 95.5139 104.543 95.4881 104.543 95.4408C104.548 95.3714 104.561 95.3029 104.58 95.2363C104.647 95.016 104.774 94.8207 104.946 94.6746C105.121 94.5312 105.333 94.445 105.555 94.4271C105.624 94.4185 105.694 94.4185 105.763 94.4271C105.785 94.4307 105.807 94.4372 105.827 94.4465Z" fill="#263238"/>
<path d="M104.08 95.1739C103.905 95.2159 103.727 95.234 103.548 95.2277C103.37 95.2369 103.192 95.221 103.018 95.1803C103.018 95.1674 103.255 95.1803 103.548 95.1803C103.841 95.1803 104.078 95.161 104.08 95.1739Z" fill="#263238"/>
<path d="M104.79 95.1673C104.79 95.1673 104.772 95.219 104.747 95.2749C104.722 95.3309 104.709 95.3825 104.697 95.3804C104.684 95.3782 104.678 95.3223 104.707 95.2556C104.736 95.1888 104.782 95.1565 104.79 95.1673Z" fill="#263238"/>
<path d="M105.058 94.8209C105.058 94.8209 105.044 94.8683 105.007 94.907C104.969 94.9458 104.932 94.9716 104.921 94.963C104.911 94.9544 104.936 94.9156 104.973 94.8748C105.011 94.8339 105.048 94.8102 105.058 94.8209Z" fill="#263238"/>
<path d="M105.441 94.6617C105.441 94.6747 105.391 94.6747 105.337 94.694C105.283 94.7134 105.245 94.7435 105.235 94.7349C105.225 94.7263 105.256 94.6747 105.322 94.651C105.389 94.6273 105.445 94.6488 105.441 94.6617Z" fill="#263238"/>
<path d="M105.713 94.5842C105.713 94.5972 105.699 94.6165 105.667 94.6273C105.636 94.638 105.609 94.6402 105.605 94.6273C105.601 94.6144 105.622 94.595 105.651 94.5842C105.68 94.5735 105.709 94.5735 105.713 94.5842Z" fill="#263238"/>
<path d="M110.748 94.3086L110.611 93.9922L113.875 92.2942L114.451 93.5855L114.243 93.6953C113.352 94.1752 109.684 96.0734 108.99 96.1681C108.223 96.2822 110.748 94.3086 110.748 94.3086Z" fill="#455A64"/>
<path d="M114.463 93.4929L114.409 93.5274L114.249 93.6135L113.659 93.9234C113.16 94.1795 112.466 94.526 111.691 94.8918C110.916 95.2577 110.205 95.5698 109.69 95.7914L109.077 96.0475L108.911 96.1143C108.892 96.1235 108.871 96.13 108.851 96.1336L108.907 96.1057L109.071 96.0303L109.678 95.7613C110.191 95.5332 110.897 95.2146 111.672 94.8488C112.448 94.4829 113.144 94.1428 113.647 93.8932L114.241 93.5984L114.405 93.5187L114.463 93.4929Z" fill="#263238"/>
<path d="M110.048 95.6819C109.976 95.591 109.894 95.5088 109.804 95.4365C109.707 95.3767 109.603 95.3291 109.495 95.2945C109.739 95.2911 109.96 95.4457 110.048 95.6819Z" fill="#263238"/>
<path d="M110.798 94.7091C110.798 94.7091 110.719 94.6832 110.636 94.6273C110.553 94.5713 110.492 94.5175 110.498 94.5068C110.505 94.496 110.577 94.5326 110.661 94.5885C110.744 94.6445 110.804 94.6983 110.798 94.7091Z" fill="#263238"/>
<path d="M111.001 94.4464C111.001 94.4572 110.931 94.4464 110.85 94.4206C110.769 94.3948 110.708 94.3625 110.711 94.3495C110.763 94.3444 110.816 94.3533 110.864 94.3754C110.943 94.3947 111.006 94.4249 111.001 94.4464Z" fill="#263238"/>
<path d="M111.03 94.0332C111.03 94.0461 110.962 94.0913 110.866 94.1387C110.811 94.1729 110.749 94.1943 110.686 94.2011C110.686 94.1882 110.754 94.143 110.848 94.0956C110.904 94.0615 110.966 94.0402 111.03 94.0332Z" fill="#263238"/>
<path d="M110.989 93.7793C110.989 93.7793 110.929 93.8654 110.821 93.9278C110.759 93.9709 110.687 93.9934 110.613 93.9924C110.672 93.9509 110.736 93.9156 110.802 93.8869C110.904 93.8288 110.979 93.7686 110.989 93.7793Z" fill="#263238"/>
<path d="M110.563 94.4636C110.5 94.5086 110.429 94.5421 110.355 94.5625C110.273 94.5872 110.19 94.6052 110.106 94.6163C110.055 94.6229 110.003 94.6229 109.952 94.6163C109.92 94.6138 109.89 94.5984 109.869 94.5733C109.849 94.5419 109.849 94.5014 109.869 94.47C109.999 94.3065 110.223 94.2614 110.403 94.3624C110.454 94.3903 110.5 94.4292 110.536 94.4765C110.561 94.5109 110.571 94.5324 110.569 94.5346C110.518 94.4754 110.457 94.4265 110.388 94.3904C110.315 94.3548 110.234 94.3421 110.153 94.3538C110.057 94.3641 109.969 94.4137 109.908 94.4915C109.885 94.5324 109.908 94.5668 109.964 94.5733C110.012 94.5776 110.06 94.5776 110.108 94.5733C110.191 94.5647 110.272 94.5496 110.353 94.5281C110.471 94.4937 110.563 94.4571 110.563 94.4636Z" fill="#263238"/>
<path d="M110.505 94.5001C110.458 94.466 110.426 94.4154 110.413 94.358C110.395 94.2975 110.391 94.2334 110.401 94.1708C110.408 94.0868 110.457 94.0127 110.53 93.975C110.582 93.9577 110.702 94.0675 110.71 94.1084C110.719 94.1493 110.65 94.1278 110.646 94.1622C110.639 94.2233 110.625 94.2833 110.604 94.3408C110.589 94.3962 110.561 94.4466 110.521 94.4872C110.521 94.4872 110.546 94.4291 110.575 94.3322C110.59 94.2751 110.601 94.2168 110.607 94.1579C110.607 94.0977 110.607 94.0051 110.54 94.0202C110.474 94.0352 110.455 94.1192 110.44 94.1794C110.428 94.2353 110.428 94.2935 110.44 94.3494C110.457 94.4015 110.479 94.4519 110.505 94.5001Z" fill="#263238"/>
<path d="M113.985 92.5869C113.985 92.5869 113.885 92.6235 113.744 92.7117C113.559 92.8261 113.409 92.9916 113.31 93.1895C113.214 93.3893 113.173 93.6128 113.191 93.8352C113.204 94.0073 113.243 94.1063 113.235 94.1106C113.222 94.0893 113.211 94.0661 113.204 94.0418C113.183 93.9759 113.169 93.9081 113.16 93.8394C113.099 93.3702 113.325 92.9108 113.728 92.6859C113.786 92.6522 113.848 92.6248 113.912 92.6041C113.936 92.5947 113.96 92.5889 113.985 92.5869Z" fill="#263238"/>
<path d="M112.678 93.9945C112.385 94.2055 112.058 94.3601 111.712 94.4507C111.712 94.4378 111.93 94.3518 112.196 94.2355C112.462 94.1193 112.672 93.9837 112.678 93.9945Z" fill="#263238"/>
<path d="M113.325 93.6866C113.335 93.6866 113.325 93.7404 113.325 93.8028C113.325 93.8652 113.325 93.9168 113.325 93.9212C113.325 93.9255 113.283 93.8738 113.283 93.8028C113.283 93.7318 113.314 93.6801 113.325 93.6866Z" fill="#263238"/>
<path d="M113.43 93.2562C113.441 93.2562 113.43 93.3057 113.418 93.3573C113.405 93.409 113.374 93.4477 113.364 93.4434C113.353 93.4391 113.364 93.3939 113.376 93.3423C113.389 93.2906 113.418 93.2519 113.43 93.2562Z" fill="#263238"/>
<path d="M113.717 92.94C113.717 92.9529 113.676 92.9722 113.634 93.0131C113.593 93.054 113.57 93.0971 113.559 93.0928C113.549 93.0885 113.559 93.0282 113.605 92.9787C113.651 92.9292 113.715 92.94 113.717 92.94Z" fill="#263238"/>
<path d="M113.935 92.7634C113.935 92.7634 113.935 92.7978 113.911 92.8215C113.886 92.8452 113.863 92.8581 113.854 92.8495C113.846 92.8409 113.854 92.8151 113.879 92.7914C113.904 92.7677 113.927 92.7548 113.935 92.7634Z" fill="#263238"/>
<path d="M109.848 48.9583L109.241 41.275L112.358 41.3331C112.358 41.3331 112.502 40.1989 112.042 37.7153C111.76 36.1916 110.781 35.2576 109.682 34.7023V34.6808L109.586 34.6549C108.681 34.2342 107.715 33.973 106.727 33.8823L102.893 33.9275C102.893 33.9275 99.9652 33.5401 98.3507 35.7117C97.7273 36.5445 95.7927 42.2456 95.7927 42.2456L100.395 44.5398L99.9653 41.3783C99.9653 41.3783 100.053 43.6704 100.335 44.3913C100.491 44.796 100.959 46.0528 100.959 46.0528L100.898 49.8449L109.848 48.9583Z" fill="#3E79D6"/>
<path d="M107.735 40.1602L107.166 42.6696H112.533L112.18 38.46L107.735 40.1602Z" fill="#3E79D6"/>
<path d="M112.533 42.6697C112.298 42.6249 112.061 42.6004 111.822 42.5965C111.382 42.5707 110.783 42.547 110.102 42.5513C109.42 42.5556 108.82 42.5857 108.379 42.6202C108.141 42.6288 107.904 42.659 107.67 42.7106C107.908 42.7302 108.147 42.7302 108.385 42.7106C108.824 42.6955 109.424 42.6783 110.102 42.6761C110.779 42.674 111.38 42.6761 111.82 42.6869C112.058 42.7007 112.296 42.6949 112.533 42.6697Z" fill="#263238"/>
<path d="M107.502 38.4407C107.476 38.6548 107.471 38.8711 107.485 39.0863C107.485 39.4802 107.502 40.0225 107.525 40.623C107.548 41.2234 107.575 41.7679 107.6 42.1596C107.601 42.3766 107.623 42.5929 107.666 42.8053C107.692 42.5911 107.697 42.3749 107.683 42.1596C107.683 41.7658 107.666 41.2213 107.643 40.6208C107.621 40.0203 107.593 39.478 107.569 39.0842C107.568 38.8679 107.545 38.6523 107.502 38.4407Z" fill="#263238"/>
<g opacity="0.3">
<path d="M102.619 40.6143C102.619 40.6143 103.812 49.776 107.165 49.5328C107.165 49.5328 108.676 49.5156 109.16 48.4761V48.0672L102.619 40.6143Z" fill="black"/>
</g>
<g opacity="0.3">
<path d="M107.502 38.9807L106.86 43.4723L107.276 44.26L107.961 42.719L107.671 42.7104L107.502 38.9807Z" fill="black"/>
</g>
<path d="M100.94 46.0571C100.9 45.9901 100.869 45.9176 100.849 45.8419C100.797 45.702 100.728 45.4976 100.641 45.2415C100.433 44.5741 100.261 43.8951 100.127 43.2077C99.9941 42.5198 99.9093 41.8228 99.8739 41.1222C99.8615 40.8532 99.8573 40.6358 99.8615 40.4766C99.8561 40.3988 99.861 40.3206 99.876 40.2441C99.8927 40.2441 99.9051 40.5756 99.9487 41.105C100.007 41.7993 100.102 42.4897 100.233 43.1732C100.387 43.9739 100.572 44.6905 100.713 45.2049C100.78 45.4438 100.836 45.6482 100.882 45.8161C100.91 45.8938 100.93 45.9747 100.94 46.0571Z" fill="#263238"/>
<path d="M102.295 48.6893C102.266 48.6893 102.183 48.5021 102.11 48.2589C102.047 48.1098 102.02 47.9476 102.029 47.7854C102.121 47.9169 102.184 48.0674 102.214 48.2266C102.273 48.3728 102.301 48.5308 102.295 48.6893Z" fill="#263238"/>
<path d="M102.758 48.6547C102.601 48.223 102.594 47.748 102.739 47.3118C102.756 47.5353 102.756 47.7597 102.739 47.9832C102.762 48.2063 102.768 48.4307 102.758 48.6547Z" fill="#263238"/>
<path d="M100.489 44.6452C100.474 44.6711 99.4043 44.1459 98.0972 43.4702C96.7902 42.7944 95.7408 42.2219 95.7533 42.1939C95.7657 42.166 96.838 42.6932 98.145 43.369C99.452 44.0448 100.501 44.6173 100.489 44.6452Z" fill="#263238"/>
<path d="M102.376 34.6701C102.399 33.5811 102.405 32.4361 102.405 32.4361C102.405 32.4361 101.056 32.1671 100.821 30.3292C100.597 28.5773 101.225 24.4645 101.225 24.4645C103.194 23.694 105.241 24.3935 106.59 26.0463L106.255 34.8853C106.216 35.9119 105.333 36.6953 104.273 36.6436C103.201 36.5898 102.353 35.7074 102.376 34.6701Z" fill="#B78876"/>
<path d="M101.121 27.7507C101.117 27.8759 101.208 27.9825 101.329 27.9939C101.448 28.0059 101.555 27.9149 101.567 27.7907C101.567 27.7867 101.567 27.7827 101.567 27.7787C101.571 27.6538 101.48 27.5479 101.36 27.5376C101.246 27.5198 101.14 27.6006 101.123 27.7181C101.121 27.7289 101.121 27.7398 101.121 27.7507Z" fill="#263238"/>
<path d="M101.037 27.443C101.064 27.4732 101.245 27.3462 101.484 27.3548C101.723 27.3634 101.9 27.4925 101.929 27.4624C101.958 27.4323 101.916 27.3935 101.84 27.3311C101.735 27.253 101.611 27.2102 101.482 27.2084C101.356 27.2035 101.231 27.2412 101.127 27.3161C101.05 27.3742 101.023 27.428 101.037 27.443Z" fill="#263238"/>
<path d="M103.595 27.9101C103.591 28.0358 103.682 28.143 103.803 28.1533C103.917 28.1712 104.023 28.0904 104.04 27.9728C104.042 27.9613 104.042 27.9497 104.042 27.9381C104.047 27.8129 103.955 27.7062 103.834 27.697C103.721 27.6792 103.615 27.76 103.598 27.8775C103.596 27.8883 103.595 27.8992 103.595 27.9101Z" fill="#263238"/>
<path d="M103.579 27.6023C103.606 27.6346 103.787 27.5076 104.026 27.5141C104.265 27.5205 104.441 27.6518 104.472 27.6217C104.504 27.5916 104.458 27.5528 104.381 27.4925C104.279 27.4124 104.154 27.3686 104.026 27.3677C103.899 27.3638 103.773 27.4014 103.668 27.4753C103.593 27.5334 103.566 27.5872 103.579 27.6023Z" fill="#263238"/>
<path d="M102.648 29.4509C102.52 29.4054 102.388 29.3773 102.253 29.3669C102.191 29.3669 102.133 29.3433 102.124 29.3002C102.119 29.2329 102.135 29.1658 102.17 29.1087L102.365 28.6244C102.547 28.2129 102.696 27.7868 102.812 27.3503C102.599 27.7458 102.417 28.1582 102.268 28.5835C102.203 28.7535 102.139 28.9171 102.079 29.0721C102.038 29.149 102.025 29.238 102.041 29.3239C102.058 29.3712 102.095 29.4078 102.141 29.4229C102.175 29.4332 102.211 29.439 102.247 29.4401C102.38 29.4613 102.514 29.4649 102.648 29.4509Z" fill="#263238"/>
<path d="M102.405 32.4361C103.236 32.4706 104.06 32.2657 104.786 31.8442C104.786 31.8442 104.181 33.086 102.417 32.8687L102.405 32.4361Z" fill="#A36957"/>
<path d="M104.36 26.8685C104.31 26.9481 104.123 26.9137 103.916 26.8685C103.708 26.8233 103.525 26.7867 103.5 26.6941C103.475 26.6016 103.693 26.4789 103.972 26.537C104.25 26.5951 104.41 26.7996 104.36 26.8685Z" fill="#263238"/>
<path d="M101.935 26.5024C101.917 26.595 101.717 26.6294 101.488 26.6402C101.26 26.6509 101.058 26.6402 101.031 26.5455C101.004 26.4508 101.198 26.3173 101.474 26.3044C101.75 26.2915 101.954 26.4142 101.935 26.5024Z" fill="#263238"/>
<path d="M102.652 30.0556C102.598 30.0424 102.542 30.069 102.517 30.1202C102.479 30.1897 102.504 30.2776 102.571 30.3164C102.638 30.3552 102.723 30.3303 102.76 30.2608C102.784 30.2171 102.784 30.1639 102.76 30.1202C102.729 30.0607 102.663 30.0312 102.6 30.0492" fill="#A36957"/>
<path d="M102.708 30.0817C102.708 30.0709 102.669 30.0085 102.563 30.0322C102.498 30.0496 102.448 30.1013 102.43 30.1677C102.407 30.252 102.436 30.3422 102.503 30.3959C102.573 30.4461 102.667 30.4461 102.737 30.3959C102.794 30.3565 102.823 30.2868 102.812 30.2172C102.791 30.1032 102.71 30.0859 102.706 30.101C102.702 30.1161 102.735 30.1548 102.729 30.2215C102.726 30.255 102.708 30.2848 102.679 30.3012C102.646 30.3208 102.606 30.3208 102.573 30.3012C102.544 30.2753 102.53 30.2352 102.536 30.1957C102.541 30.1612 102.562 30.1314 102.592 30.1161C102.65 30.0795 102.702 30.0967 102.708 30.0817Z" fill="#263238"/>
<path d="M105.784 28.205C105.576 28.7086 105.061 29.0982 105.131 29.6427C105.177 29.9935 105.395 30.3206 105.353 30.6735C105.299 31.104 104.857 31.4225 104.792 31.8637C104.716 32.4039 105.225 32.8235 105.426 33.3272C105.723 34.0632 105.345 34.8896 105.335 35.6945C105.36 36.9584 106.283 38.0083 107.496 38.1523C107.97 38.1932 108.504 38.0447 108.743 37.6229C108.95 37.2742 108.905 36.8309 109.025 36.4456C109.208 35.8689 109.738 35.4471 109.856 34.853C110.064 33.777 108.797 32.8731 108.88 31.7712C108.915 31.2998 109.196 30.8909 109.314 30.4347C109.467 29.8264 109.33 29.1791 108.944 28.6936C108.63 28.3083 108.177 28.0479 107.905 27.6347C107.604 27.1591 107.594 26.5586 107.49 25.9969C107.034 23.7665 104.919 22.3412 102.765 22.8132C102.182 22.9412 101.633 23.2032 101.16 23.58C101.16 23.58 100.859 24.9983 102.266 25.2372C103.672 25.4761 104.323 25.2006 104.481 25.7838C104.405 26.2712 104.56 26.7665 104.896 27.116C105.47 27.7574 106.016 27.6196 105.784 28.205Z" fill="#263238"/>
<path d="M108.017 38.0425C107.974 38.044 107.931 38.0397 107.889 38.0296C107.767 38.0072 107.647 37.9733 107.531 37.9284C107.102 37.7581 106.726 37.4702 106.442 37.0955C106.244 36.837 106.088 36.5461 105.981 36.2347C105.86 35.88 105.796 35.5069 105.792 35.1306C105.788 34.7158 105.838 34.3024 105.941 33.9017C105.998 33.6901 106.068 33.4824 106.149 33.2798C106.235 33.0781 106.311 32.8719 106.376 32.6621C106.433 32.4553 106.433 32.2361 106.376 32.0293C106.315 31.8258 106.236 31.6284 106.141 31.4396C106.045 31.2524 105.963 31.0574 105.898 30.8564C105.834 30.6575 105.819 30.4452 105.854 30.2387C105.937 29.8341 106.174 29.5328 106.316 29.2251C106.45 28.9402 106.514 28.6252 106.503 28.3082C106.484 27.8444 106.321 27.3993 106.039 27.0385C105.93 26.9121 105.813 26.7934 105.688 26.6833C105.834 26.7681 105.964 26.8789 106.072 27.0105C106.375 27.3707 106.553 27.825 106.579 28.3018C106.597 28.6325 106.534 28.9624 106.397 29.2616C106.253 29.5802 106.023 29.8836 105.952 30.2538C105.881 30.624 106.05 31.0135 106.234 31.388C106.335 31.5822 106.417 31.7862 106.48 31.997C106.541 32.2222 106.541 32.4606 106.48 32.6857C106.411 32.9029 106.331 33.1162 106.241 33.3249C106.159 33.5232 106.09 33.7266 106.033 33.934C105.93 34.3245 105.879 34.7279 105.881 35.1327C105.875 35.8223 106.09 36.4945 106.492 37.0439C106.761 37.4138 107.12 37.704 107.531 37.8854C107.841 38.0102 108.019 38.0296 108.017 38.0425Z" fill="#455A64"/>
<path d="M107.81 27.1826C107.708 27.2097 107.605 27.2256 107.5 27.2299C107.215 27.2615 106.927 27.2536 106.644 27.2062C106.21 27.1398 105.821 26.8954 105.563 26.5283C105.445 26.2984 105.35 26.056 105.281 25.8052C105.192 25.5547 105.025 25.3419 104.807 25.2004C104.352 24.9013 103.818 24.8647 103.352 24.8066C102.923 24.7844 102.506 24.6496 102.141 24.4149C101.896 24.247 101.72 23.992 101.644 23.6982C101.626 23.6186 101.621 23.5364 101.63 23.455C101.63 23.3991 101.642 23.3711 101.646 23.3711C101.649 23.4777 101.662 23.5837 101.686 23.6875C101.772 23.9622 101.948 24.1968 102.185 24.3503C102.543 24.567 102.948 24.6883 103.363 24.7033C103.828 24.7592 104.381 24.7872 104.867 25.1057C105.105 25.2605 105.287 25.493 105.383 25.7664C105.448 26.0109 105.538 26.2475 105.651 26.4724C105.893 26.8162 106.255 27.048 106.661 27.118C106.934 27.1707 107.213 27.1903 107.492 27.1761C107.598 27.17 107.704 27.1721 107.81 27.1826Z" fill="#455A64"/>
<path d="M107.294 25.4308C107.216 25.4579 107.134 25.4703 107.051 25.4674C106.664 25.4701 106.291 25.3156 106.012 25.0369C105.885 24.9049 105.777 24.7549 105.69 24.5914C105.503 24.2643 105.322 23.8618 104.934 23.694C104.559 23.5639 104.16 23.5277 103.77 23.5885C103.44 23.6364 103.106 23.6364 102.777 23.5885C102.547 23.5556 102.332 23.4572 102.153 23.3044C102.107 23.2628 102.067 23.2151 102.033 23.1624C102.008 23.1251 101.997 23.1057 102.002 23.1043C102.008 23.1021 102.06 23.1732 102.18 23.27C102.358 23.4009 102.564 23.4838 102.781 23.5111C103.104 23.5488 103.431 23.543 103.753 23.4938C104.161 23.4249 104.579 23.4619 104.969 23.6015C105.17 23.6949 105.341 23.8438 105.466 24.0319C105.575 24.1997 105.676 24.3735 105.767 24.5527C105.849 24.7091 105.95 24.8538 106.068 24.9831C106.172 25.0925 106.292 25.1847 106.424 25.2565C106.617 25.361 106.829 25.4219 107.047 25.4351C107.207 25.4329 107.292 25.42 107.294 25.4308Z" fill="#455A64"/>
<path d="M108.637 37.5776C108.626 37.5776 108.693 37.4356 108.77 37.1687C108.874 36.7941 108.92 36.4048 108.907 36.0152C108.892 35.4385 108.74 34.8745 108.464 34.3731C108.313 34.0911 108.082 33.8393 107.893 33.5294C107.793 33.3715 107.722 33.1956 107.685 33.0107C107.652 32.8162 107.668 32.6162 107.731 32.4297C107.847 32.0573 108.055 31.7453 108.101 31.4031C108.146 31.0609 107.988 30.7574 107.83 30.4712C107.749 30.3319 107.675 30.1882 107.608 30.0407C107.547 29.8977 107.507 29.7461 107.49 29.5909C107.47 29.3175 107.478 29.0426 107.515 28.771C107.581 28.387 107.547 27.9915 107.415 27.626C107.356 27.498 107.273 27.3837 107.17 27.2903C107.17 27.2903 107.18 27.2903 107.195 27.3032C107.219 27.3158 107.242 27.3326 107.261 27.3527C107.342 27.4228 107.408 27.5101 107.454 27.6088C107.605 27.9774 107.651 28.3825 107.589 28.7774C107.561 29.044 107.557 29.3129 107.579 29.5802C107.63 29.8809 107.745 30.1661 107.916 30.4152C108.004 30.5607 108.08 30.7141 108.142 30.8736C108.208 31.0458 108.229 31.2326 108.205 31.416C108.155 31.7926 107.941 32.1111 107.833 32.4619C107.776 32.6312 107.761 32.8124 107.789 32.9892C107.825 33.1602 107.891 33.3228 107.984 33.4691C108.161 33.7683 108.4 34.0244 108.552 34.3192C108.83 34.8376 108.979 35.4199 108.984 36.013C108.99 36.41 108.931 36.8052 108.809 37.1816C108.776 37.2835 108.736 37.3827 108.689 37.4786C108.676 37.514 108.658 37.5474 108.637 37.5776Z" fill="#455A64"/>
<path d="M100.173 77.679C100.173 77.679 98.7726 63.9395 98.6916 58.8626C98.6105 53.7856 100.896 48.7754 100.896 48.7754L109.848 48.3901C109.848 48.3901 111.619 53.5403 111.65 55.7075C111.712 59.9128 110.571 64.0644 110.702 67.4002L111.001 77.6876" fill="#263238"/>
<path d="M111.303 60.7866C111.256 60.8286 111.207 60.8674 111.155 60.9028L111.074 60.9609L110.987 61.0492C110.91 61.1181 110.84 61.1953 110.779 61.2795C110.49 61.6453 110.28 62.3017 110.079 63.1174C109.976 63.5698 109.824 64.0088 109.626 64.4259C109.566 64.5402 109.496 64.6489 109.418 64.7509C109.381 64.8025 109.345 64.8585 109.302 64.908L109.165 65.05C108.968 65.2401 108.74 65.3918 108.491 65.4977C107.99 65.7258 107.423 65.8334 106.908 66.1024C106.38 66.3966 105.972 66.8779 105.759 67.4583C105.505 68.0415 105.343 68.6527 105.135 69.2252C104.928 69.7977 104.647 70.3444 104.2 70.693C103.773 71.0004 103.266 71.1663 102.746 71.1686C102.264 71.1988 101.817 71.1837 101.416 71.2461C101.055 71.2849 100.71 71.4198 100.414 71.6378C100.198 71.8126 100.037 72.049 99.9488 72.3179C99.893 72.4875 99.8809 72.6692 99.9134 72.8452C99.9384 72.9657 99.9695 73.0238 99.9633 73.026C99.9299 72.9719 99.9059 72.9122 99.8926 72.8495C99.8488 72.6699 99.8546 72.4813 99.9093 72.305C99.9919 72.0228 100.155 71.773 100.377 71.5883C100.68 71.3515 101.039 71.2029 101.416 71.1579C101.831 71.089 102.274 71.0976 102.75 71.0653C103.255 71.0619 103.747 70.8998 104.161 70.6005C104.581 70.2204 104.891 69.7272 105.056 69.1757C105.264 68.6097 105.416 67.9963 105.68 67.4024C105.903 66.7982 106.33 66.2977 106.881 65.9927C107.417 65.7172 107.984 65.6118 108.473 65.3923C108.712 65.2898 108.931 65.144 109.121 64.9618L109.252 64.8262C109.293 64.7789 109.329 64.7251 109.366 64.6756C109.439 64.5777 109.504 64.4733 109.559 64.3635C109.758 63.9522 109.912 63.519 110.018 63.0722C110.226 62.2587 110.453 61.5937 110.758 61.2257C110.819 61.1418 110.889 61.0653 110.966 60.9976C110.999 60.9674 111.028 60.9373 111.057 60.9136L111.143 60.8576C111.195 60.8306 111.248 60.8069 111.303 60.7866Z" fill="#FAFAFA"/>
<path d="M111.357 54.429C111.366 54.4894 111.37 54.5507 111.369 54.6119C111.368 54.7896 111.347 54.9666 111.307 55.1392C111.128 55.7688 110.776 56.331 110.295 56.7576C109.977 57.0602 109.629 57.3264 109.256 57.5518C108.855 57.7971 108.412 58.0317 107.957 58.2985C107.479 58.564 107.034 58.8885 106.631 59.2649C106.218 59.6893 105.878 60.1834 105.626 60.7262C105.371 61.2763 105.08 61.8077 104.755 62.3166C104.59 62.5538 104.399 62.7705 104.186 62.9623C103.975 63.1474 103.744 63.3057 103.498 63.4336C103.051 63.6608 102.586 63.8459 102.108 63.9867C101.663 64.1288 101.247 64.2557 100.886 64.4172C100.558 64.5524 100.245 64.7257 99.9549 64.9337C99.7363 65.0907 99.5398 65.2783 99.371 65.4911C99.2296 65.6757 99.1116 65.8782 99.0198 66.0937C99.0346 66.034 99.054 65.9757 99.0779 65.9194C99.146 65.7568 99.2333 65.6035 99.3377 65.4631C99.5035 65.2413 99.6995 65.0455 99.9195 64.882C100.211 64.6666 100.526 64.4861 100.857 64.344C101.257 64.175 101.665 64.0278 102.081 63.9028C102.552 63.7586 103.011 63.5729 103.452 63.3475C103.686 63.2211 103.905 63.0681 104.107 62.8913C104.312 62.7022 104.496 62.49 104.655 62.2585C104.976 61.7521 105.264 61.2244 105.518 60.6788C105.778 60.124 106.13 59.6201 106.557 59.1896C106.966 58.8075 107.42 58.4793 107.907 58.2125C108.364 57.9477 108.807 57.7175 109.208 57.4743C109.58 57.2565 109.928 56.9982 110.247 56.7038C110.724 56.2899 111.079 55.7445 111.269 55.1306C111.323 54.9006 111.352 54.6654 111.357 54.429Z" fill="#FAFAFA"/>
<path d="M98.7372 59.5814C98.729 59.5681 98.7227 59.5536 98.7185 59.5384C98.7029 59.4969 98.6898 59.4545 98.679 59.4114C98.6434 59.2402 98.6506 59.0624 98.6998 58.8949C98.8162 58.4644 99.2754 57.9113 100.015 57.638C100.385 57.5067 100.803 57.4228 101.239 57.3109C101.974 57.1847 102.605 56.698 102.933 56.0045C103.051 55.7537 103.154 55.4957 103.242 55.2319C103.405 54.659 103.626 54.1057 103.901 53.5812C104.217 53.0656 104.696 52.6799 105.256 52.49C105.765 52.3188 106.285 52.1822 106.812 52.0811C107.282 51.9876 107.738 51.8268 108.165 51.6034C108.527 51.3892 108.839 51.0953 109.079 50.7425C109.434 50.2331 109.636 49.6268 109.661 48.9992C109.662 48.7689 109.647 48.5388 109.617 48.3105C109.68 48.5341 109.709 48.7665 109.703 48.9992C109.695 49.6404 109.499 50.264 109.142 50.7877C108.898 51.1522 108.58 51.4558 108.209 51.6765C107.776 51.9084 107.313 52.0757 106.835 52.1737C106.313 52.2763 105.798 52.4136 105.293 52.5848C104.755 52.7672 104.295 53.1378 103.992 53.6329C103.721 54.1502 103.503 54.6955 103.342 55.2599C103.252 55.5285 103.146 55.7909 103.024 56.0455C102.901 56.29 102.744 56.5148 102.559 56.7126C102.194 57.0573 101.744 57.2918 101.26 57.3906C100.819 57.5068 100.404 57.5799 100.04 57.7048C99.3191 57.9587 98.8619 58.4817 98.7393 58.8992C98.689 59.0602 98.6754 59.2312 98.6998 59.3985C98.7174 59.4582 98.7299 59.5194 98.7372 59.5814Z" fill="#FAFAFA"/>
<path d="M110.588 71.2031C110.596 71.2478 110.601 71.2932 110.602 71.3387C110.606 71.4691 110.593 71.5994 110.563 71.7261C110.432 72.1928 110.156 72.6015 109.777 72.8883C109.525 73.0969 109.245 73.2679 108.946 73.3962C108.628 73.5361 108.277 73.648 107.907 73.7663C107.523 73.8825 107.148 74.0263 106.783 74.1968C106.404 74.3842 106.065 74.6467 105.784 74.9694C105.48 75.2965 105.218 75.656 104.928 75.9745C104.649 76.283 104.326 76.5444 103.97 76.7493C103.363 77.092 102.684 77.2753 101.993 77.283C101.531 77.2882 101.071 77.2088 100.635 77.0484C100.516 77.0062 100.401 76.9551 100.29 76.8956C100.249 76.8782 100.211 76.8558 100.175 76.8289C100.217 76.8408 100.258 76.8559 100.298 76.8741C100.412 76.9246 100.529 76.9692 100.647 77.0075C101.082 77.1489 101.537 77.2151 101.994 77.2034C102.669 77.1853 103.331 76.9985 103.922 76.6589C104.267 76.4563 104.58 76.2001 104.851 75.8992C105.135 75.585 105.395 75.2277 105.705 74.892C106.003 74.5571 106.361 74.2865 106.76 74.0957C107.13 73.9246 107.512 73.7807 107.901 73.6653C108.267 73.549 108.616 73.45 108.94 73.308C109.23 73.185 109.503 73.0222 109.751 72.8238C110.123 72.5514 110.401 72.1619 110.542 71.7132C110.573 71.545 110.588 71.3743 110.588 71.2031Z" fill="#FAFAFA"/>
<path d="M109.568 42.6783L107.835 42.7214C107.768 43.0833 107.635 43.4288 107.444 43.7393C105.989 41.1352 104.873 37.6487 104.595 36.2477C104.637 36.1078 104.684 35.9528 104.745 35.7806C104.788 35.5191 104.78 35.2513 104.722 34.9929C104.672 34.6809 104.589 34.2612 104.564 34.0675C104.487 33.4735 104.393 33.381 104.194 33.4477C103.924 33.5402 104.306 35.1113 104.084 35.1457C103.963 35.1629 103.818 34.6249 103.776 34.1837C103.735 33.7425 103.539 32.3823 103.4 32.292C103.192 32.1585 103.012 32.3694 103.066 32.8085C103.12 33.2475 103.184 34.5819 102.96 34.6012C102.735 34.6206 102.544 32.3651 102.544 32.3651C102.544 32.3651 102.579 31.8744 102.318 31.8852C101.848 31.9067 102.216 34.2827 102.255 34.5087C102.284 34.6636 102.047 34.6938 102.018 34.5237C101.989 34.3537 101.881 32.2704 101.395 32.2876C101.025 32.2876 101.68 34.2439 101.472 34.6959C101.264 35.1478 101.123 33.1635 100.772 33.1894C100.641 33.2001 100.543 33.226 100.784 34.3472C101.015 35.2381 101.292 36.1154 101.615 36.975C102.172 40.0849 104.616 50.0344 108.445 48.2137C110.59 47.1935 111.458 42.6783 111.458 42.6783H109.568V42.6783Z" fill="#B78876"/>
<path d="M102.18 34.6592C102.197 34.6635 102.214 34.6635 102.23 34.6592C102.282 34.6428 102.315 34.5899 102.307 34.5344C102.307 34.4009 102.282 34.2073 102.253 33.9555C102.204 33.652 102.173 33.3459 102.158 33.0386C102.158 32.8579 102.158 32.6642 102.168 32.4597C102.171 32.3558 102.181 32.2522 102.199 32.1498C102.216 32.053 102.278 31.9346 102.351 31.954H102.363C102.436 31.954 102.494 32.0099 102.517 32.1003C102.543 32.194 102.553 32.2915 102.546 32.3887C102.589 32.9914 102.663 33.5913 102.768 34.1857C102.785 34.2654 102.802 34.3471 102.827 34.4289C102.838 34.4708 102.852 34.5118 102.868 34.5516C102.879 34.5738 102.891 34.5953 102.904 34.6162C102.922 34.6481 102.955 34.6688 102.991 34.6721C103.053 34.6651 103.104 34.62 103.122 34.5581C103.14 34.516 103.153 34.4719 103.161 34.4268C103.177 34.34 103.188 34.2523 103.194 34.1642C103.213 33.8056 103.209 33.446 103.18 33.0881C103.154 32.9094 103.147 32.7282 103.159 32.5479C103.167 32.47 103.203 32.3983 103.261 32.3478C103.288 32.3312 103.32 32.3273 103.35 32.337C103.368 32.3414 103.385 32.3487 103.4 32.3585C103.411 32.3667 103.419 32.3779 103.423 32.3908C103.488 32.5653 103.537 32.7463 103.566 32.931C103.604 33.1204 103.635 33.3162 103.664 33.5121C103.693 33.7079 103.72 33.9059 103.743 34.1061C103.761 34.3126 103.793 34.5176 103.839 34.7194C103.863 34.8227 103.894 34.924 103.932 35.0229C103.953 35.0783 103.983 35.1298 104.019 35.1757C104.048 35.2147 104.096 35.2331 104.142 35.2231C104.185 35.2084 104.217 35.1717 104.227 35.1262C104.252 35.0162 104.259 34.9029 104.25 34.7905C104.25 34.6829 104.238 34.5753 104.227 34.472C104.213 34.2912 104.196 34.1126 104.19 33.9361C104.185 33.8493 104.185 33.7624 104.19 33.6756C104.194 33.6372 104.203 33.5996 104.217 33.5637C104.221 33.5519 104.227 33.541 104.236 33.5315H104.263C104.4 33.4733 104.445 33.6713 104.483 33.8306C104.52 33.9899 104.535 34.1707 104.568 34.3407C104.622 34.6786 104.693 35.0165 104.728 35.3393C104.752 35.4939 104.746 35.6518 104.711 35.8041C104.661 35.9591 104.612 36.1119 104.564 36.2647V36.2798V36.2927C104.807 37.35 105.118 38.3896 105.493 39.4047C105.821 40.3237 106.151 41.1265 106.44 41.7721C106.729 42.4177 106.991 42.9235 107.17 43.2635L107.377 43.6488C107.4 43.6947 107.427 43.738 107.458 43.7779C107.441 43.7301 107.419 43.684 107.394 43.6402L107.186 43.2464C107.016 42.8998 106.771 42.3855 106.488 41.7398C106.205 41.0942 105.885 40.2914 105.565 39.3724C105.199 38.3589 104.895 37.3223 104.655 36.269V36.2992C104.703 36.1485 104.751 35.9957 104.801 35.8429C104.844 35.6752 104.852 35.4999 104.826 35.3285C104.788 34.9906 104.72 34.6635 104.666 34.3235C104.634 34.1556 104.614 33.9834 104.58 33.807C104.578 33.7163 104.564 33.6264 104.537 33.5401C104.513 33.4876 104.473 33.445 104.423 33.4196C104.369 33.4015 104.312 33.4015 104.258 33.4196H104.225C104.208 33.4254 104.191 33.4349 104.177 33.4475C104.154 33.4678 104.136 33.4937 104.125 33.5229C104.106 33.5694 104.094 33.6188 104.09 33.6692C104.084 33.7624 104.084 33.8558 104.09 33.949C104.09 34.1298 104.115 34.3106 104.13 34.4913C104.13 34.5968 104.146 34.7066 104.15 34.8034C104.159 34.9005 104.154 34.9983 104.136 35.0939C104.136 35.1155 104.119 35.1111 104.136 35.1219L104.123 35.109C104.097 35.0738 104.076 35.0346 104.061 34.9928C104.025 34.8997 103.995 34.804 103.972 34.7066C103.926 34.5106 103.895 34.3113 103.878 34.1104C103.856 33.9081 103.829 33.7079 103.797 33.51C103.768 33.3119 103.735 33.1183 103.697 32.9246C103.666 32.7274 103.613 32.5346 103.539 32.35C103.525 32.3191 103.503 32.293 103.475 32.2746C103.451 32.2601 103.425 32.2485 103.398 32.2402C103.338 32.2239 103.275 32.2332 103.222 32.266C103.135 32.3331 103.079 32.4345 103.068 32.5458C103.054 32.6436 103.054 32.7429 103.068 32.8407C103.068 32.9332 103.089 33.0236 103.095 33.114C103.124 33.4661 103.13 33.8198 103.114 34.1729C103.109 34.2567 103.098 34.3401 103.082 34.4225C103.076 34.461 103.066 34.4986 103.051 34.5344C103.046 34.5486 103.038 34.5617 103.028 34.5732C103.028 34.5925 103.014 34.5732 103.016 34.599C103.016 34.5775 103.016 34.599 103.016 34.571C103.007 34.5565 102.998 34.5414 102.991 34.5258C102.976 34.4914 102.964 34.4526 102.951 34.416C102.929 34.3386 102.912 34.2589 102.895 34.1814C102.787 33.5921 102.709 32.9973 102.66 32.3995C102.667 32.2912 102.655 32.1827 102.625 32.0788C102.611 32.0246 102.583 31.9754 102.544 31.9367C102.503 31.8956 102.447 31.8738 102.39 31.8765H102.403C102.331 31.8656 102.26 31.9004 102.222 31.9647C102.191 32.0161 102.17 32.073 102.16 32.1326C102.142 32.2393 102.133 32.3472 102.131 32.4554C102.131 32.6707 102.131 32.8579 102.131 33.0408C102.15 33.35 102.188 33.6576 102.245 33.9619C102.28 34.2116 102.307 34.4053 102.32 34.5366C102.328 34.584 102.303 34.6308 102.259 34.6485C102.197 34.6549 102.178 34.657 102.18 34.6592Z" fill="#A36957"/>
<path d="M88.6467 45.6417C88.2412 45.6327 87.8364 45.6812 87.4436 45.7859C86.3693 46.0786 84.5178 47.2407 84.4409 48.6762H85.7874C85.7874 48.6762 85.0331 50.3377 85.2534 50.1827C85.829 49.7824 86.9719 48.5794 86.9719 48.5794L88.6467 45.6417Z" fill="#B78876"/>
<path d="M107.001 20.6271C106.97 20.6271 106.85 19.4779 106.729 18.0445C106.609 16.6112 106.534 15.4619 106.563 15.4619C106.592 15.4619 106.715 16.6112 106.835 18.0445C106.956 19.4778 107.03 20.6271 107.001 20.6271Z" fill="#263238"/>
<path d="M112.905 15.5502C112.928 15.5674 112.02 16.9341 110.875 18.602C109.73 20.2699 108.78 21.615 108.755 21.5892C108.73 21.5634 109.64 20.2054 110.785 18.5374C111.93 16.8695 112.88 15.533 112.905 15.5502Z" fill="#263238"/>
<path d="M115.357 21.7442C115.357 21.7743 114.301 22.0261 112.988 22.3059C111.675 22.5857 110.602 22.788 110.596 22.7578C110.59 22.7277 111.65 22.4759 112.965 22.1961C114.28 21.9164 115.342 21.714 115.357 21.7442Z" fill="#263238"/>
<path d="M44.6918 51.3041L37.3359 90.4305L36.38 95.5527L85.4197 95.3073C87.6224 95.2966 89.5756 93.2714 90.2801 90.2627L98.9784 53.325C99.5166 51.0416 98.3363 48.6656 96.6656 48.6677L47.0191 48.7215C45.9386 48.7194 44.9703 49.7782 44.6918 51.3041Z" fill="#3E79D6"/>
<g opacity="0.5">
<path d="M44.6918 51.3041L37.3359 90.4305L36.38 95.5527L85.4197 95.3073C87.6224 95.2966 89.5756 93.2714 90.2801 90.2627L98.9784 53.325C99.5166 51.0416 98.3363 48.6656 96.6656 48.6677L47.0191 48.7215C45.9386 48.7194 44.9703 49.7782 44.6918 51.3041Z" fill="black"/>
</g>
<path d="M80.7215 87.7747L75.5266 44.4278C75.3188 42.6523 73.9495 41.3266 72.3349 41.333L60.9477 41.3696C60.0925 41.3796 59.2788 41.7531 58.6973 42.4027L53.2946 48.3577L21.6266 48.5342C19.692 48.545 18.2042 50.4432 18.4598 52.5738L23.2827 92.6364C23.4905 94.4098 24.8599 95.7334 26.4703 95.7312L81.6711 95.6172C87.8177 95.7484 88.4058 93.8696 88.4058 93.8696C81.3491 95.4859 80.7215 87.7854 80.7215 87.7747Z" fill="#3E79D6"/>
<g opacity="0.5">
<path d="M56.9186 79.1058L55.0568 81.1762L40.7189 67.8155L42.5807 65.7451L56.9186 79.1058Z" fill="white"/>
<path d="M54.2775 65.2866L56.3347 67.2042L43.362 81.6345L41.3027 79.7169L54.2775 65.2866Z" fill="white"/>
</g>
<path d="M88.6032 23.1623C88.4659 23.1024 88.3744 22.9657 88.3684 22.8115L88.2853 20.8143C88.2749 20.5935 88.4392 20.4057 88.6524 20.3949C88.689 20.3931 88.7256 20.3966 88.7611 20.4054C89.0863 20.4781 89.4261 20.4088 89.7004 20.2139C89.953 20.0483 90.1282 19.7819 90.1845 19.4778C90.2226 19.1701 90.1386 18.8595 89.9518 18.617C89.7551 18.3411 89.4605 18.1576 89.1331 18.1069C88.4599 18.0681 87.8493 18.5135 87.6577 19.183C87.5912 19.3943 87.3718 19.5097 87.1678 19.4408C86.9765 19.3761 86.8644 19.1709 86.9096 18.9678C87.201 17.9135 88.1665 17.2155 89.2224 17.2955C89.7612 17.3699 90.2477 17.6673 90.571 18.1198C90.8854 18.5392 91.0226 19.0725 90.9513 19.5984C90.8558 20.1236 90.555 20.5847 90.1201 20.8725C89.8083 21.0898 89.4442 21.2128 89.0687 21.2276L89.1331 22.7685C89.141 22.9906 88.9735 23.1773 88.7591 23.1855C88.7021 23.1877 88.6453 23.1769 88.5928 23.1538L88.6032 23.1623Z" fill="#3E79D6"/>
<path d="M89.1724 23.9801C89.1847 24.1615 89.0526 24.3188 88.8774 24.3315C88.7023 24.3442 88.5504 24.2074 88.5381 24.0259C88.5259 23.8445 88.658 23.6872 88.8332 23.6745C88.8334 23.6745 88.8336 23.6745 88.8337 23.6745C89.0077 23.6611 89.1592 23.7962 89.1722 23.9764C89.1723 23.9776 89.1724 23.9789 89.1724 23.9801Z" fill="#3E79D6"/>
<path d="M81.9266 20.3451C81.9355 20.3026 81.9418 20.2594 81.9453 20.216C81.9453 20.1213 81.9682 20.0008 81.9848 19.8308C82.0052 19.622 82.0392 19.4149 82.0866 19.2109C82.1136 19.0904 82.1282 18.957 82.1697 18.8214C82.2113 18.6858 82.2528 18.5395 82.2985 18.391C82.5391 17.6552 82.8897 16.9631 83.3375 16.3399C83.9244 15.533 84.6684 14.8629 85.5214 14.3729C86.0069 14.0893 86.524 13.8682 87.0612 13.7143C87.6409 13.5551 88.2381 13.4741 88.8379 13.4732C89.1538 13.468 89.4697 13.4852 89.7833 13.5249C89.9433 13.5421 90.1013 13.5852 90.2612 13.6131C90.423 13.6419 90.5827 13.6821 90.7392 13.7337C91.3941 13.9232 92.0171 14.2157 92.5865 14.601C93.8524 15.4514 94.8166 16.7054 95.3335 18.1736C95.6119 18.96 95.7526 19.7916 95.7491 20.6292C95.7577 21.4921 95.6104 22.349 95.3148 23.1558L95.2213 23.4012L95.2088 23.4335L95.2213 23.4657C95.7429 24.7075 96.2603 25.9278 96.7486 27.1094L96.8359 27.0061L93.7189 25.7686L93.6815 25.7535L93.6504 25.7837C92.8258 26.6111 91.8164 27.2144 90.7121 27.5398C88.8035 28.084 86.7613 27.7558 85.1017 26.6381C84.4297 26.1817 83.8373 25.6104 83.35 24.9486C82.6436 23.9827 82.186 22.8466 82.0201 21.6472C81.9951 21.432 81.9743 21.2512 81.9556 21.0876C81.9369 20.9241 81.9556 20.7906 81.9452 20.6766C81.9348 20.5625 81.9452 20.4872 81.9452 20.4248C81.9679 20.4212 81.9835 20.3993 81.9801 20.3758C81.9767 20.3523 81.9555 20.3361 81.9328 20.3397C81.9101 20.3432 81.8945 20.3652 81.8979 20.3887C81.9007 20.4073 81.9148 20.4219 81.9328 20.4248C81.9328 20.4872 81.9328 20.5711 81.9328 20.6766C81.9328 20.782 81.9328 20.9284 81.9328 21.092C81.9328 21.2555 81.9681 21.4427 81.9889 21.6558C82.0572 22.1735 82.1763 22.6826 82.3442 23.1753C82.5821 23.8259 82.9021 24.441 83.2959 25.0046C83.7853 25.6781 84.3819 26.2604 85.0601 26.7263C86.7403 27.872 88.8145 28.2153 90.7558 27.669C91.8733 27.3402 92.8954 26.7311 93.7314 25.8956L93.6629 25.9106L96.7798 27.1546L96.9356 27.217L96.867 27.0513C96.3725 25.8697 95.8613 24.6516 95.3418 23.4077V23.4701L95.4374 23.2183C95.7406 22.3939 95.8915 21.5178 95.8821 20.6357C95.8886 19.7803 95.7479 18.9305 95.4665 18.1262C94.9385 16.6288 93.9528 15.3509 92.6592 14.4869C92.0756 14.0927 91.4362 13.795 90.7641 13.6045C90.6052 13.5524 90.4426 13.5129 90.2779 13.4862C90.1158 13.456 89.9558 13.413 89.7937 13.3979C89.476 13.3571 89.1559 13.3384 88.8358 13.342C88.2264 13.3447 87.62 13.43 87.0321 13.5959C86.4878 13.756 85.9639 13.9829 85.4716 14.2717C84.61 14.7737 83.8614 15.4596 83.2752 16.284C82.8287 16.9175 82.4829 17.6208 82.2507 18.3673C82.2071 18.5223 82.1655 18.6708 82.1281 18.7977C82.0951 18.9275 82.0687 19.0589 82.0492 19.1916C82.0046 19.397 81.9754 19.6057 81.9619 19.8157C81.9494 19.9814 81.9411 20.1084 81.9349 20.2031C81.9262 20.2499 81.9234 20.2976 81.9266 20.3451Z" fill="#263238"/>
</svg>
