<svg width="187" height="140" viewBox="0 0 187 140" fill="none" xmlns="http://www.w3.org/2000/svg">
<path d="M24.775 139.86C38.1933 139.86 49.0709 138.838 49.0709 137.577C49.0709 136.316 38.1933 135.294 24.775 135.294C11.3567 135.294 0.479004 136.316 0.479004 137.577C0.479004 138.838 11.3567 139.86 24.775 139.86Z" fill="#CCCCCC"/>
<path d="M51.4371 16.3578L19.8845 25.119V98.0067L51.4371 106.768V16.3578Z" fill="#FDF8F5"/>
<path d="M136.386 14.8409H140.056V106.768H80.1073V86.2891H136.386V14.8409Z" fill="#D3D1CE"/>
<path d="M57.8082 16.3578H51.437V106.768H57.8082V16.3578Z" fill="#D7DDE1"/>
<path d="M57.8082 16.3577L62.6624 14.8409V106.768H57.8082" fill="#FDF8F5"/>
<path d="M62.6625 14.8409H136.386V25.9146V86.2891H80.1074V106.768H62.6625" fill="#EFEBE7"/>
<path d="M134.086 25.6331H68.528V38.8373H134.086V25.6331Z" fill="#7794B5"/>
<path d="M78.2997 24.9824H77.8617V38.6576H78.2997V24.9824Z" fill="black"/>
<path d="M89.4488 24.9824H89.0107V38.6576H89.4488V24.9824Z" fill="black"/>
<path d="M100.598 24.9824H100.16V38.6576H100.598V24.9824Z" fill="black"/>
<path d="M111.747 24.9824H111.309V38.6576H111.747V24.9824Z" fill="black"/>
<path d="M122.896 24.9824H122.458V38.6576H122.896V24.9824Z" fill="black"/>
<path d="M134.045 24.9824H133.607V38.6576H134.045V24.9824Z" fill="black"/>
<path d="M73.2881 25.6331H68.528V38.8373H73.2881V25.6331Z" fill="#45467A"/>
<path d="M134.086 25.6331H68.528V28.1515H134.086V25.6331Z" fill="#545F88"/>
<path d="M136.95 25.9434V24.5029H68.9231H67.6067V25.9434V38.1171V39.5576H68.9231H136.95V38.1171H68.9231V25.9434H136.95Z" fill="#F9F3F4"/>
<path d="M134.086 45.0787H68.528V58.283H134.086V45.0787Z" fill="#7794B5"/>
<path d="M78.2997 44.4282H77.8617V58.1033H78.2997V44.4282Z" fill="black"/>
<path d="M89.4488 44.4282H89.0107V58.1033H89.4488V44.4282Z" fill="black"/>
<path d="M100.598 44.4282H100.16V58.1033H100.598V44.4282Z" fill="black"/>
<path d="M111.747 44.4282H111.309V58.1033H111.747V44.4282Z" fill="black"/>
<path d="M122.896 44.4282H122.458V58.1033H122.896V44.4282Z" fill="black"/>
<path d="M134.045 44.4282H133.607V58.1033H134.045V44.4282Z" fill="black"/>
<path d="M73.2881 45.0787H68.528V58.283H73.2881V45.0787Z" fill="#45467A"/>
<path d="M134.086 45.0787H68.528V47.5972H134.086V45.0787Z" fill="#545F88"/>
<path d="M136.95 45.389V43.9485H68.9231H67.6067V45.389V57.5627V59.0032H68.9231H136.95V57.5627H68.9231V45.389H136.95Z" fill="#F9F3F4"/>
<path d="M134.086 66.2106H68.528V79.4149H134.086V66.2106Z" fill="#7794B5"/>
<path d="M78.2997 65.56H77.8617V79.2352H78.2997V65.56Z" fill="black"/>
<path d="M89.4488 65.56H89.0107V79.2352H89.4488V65.56Z" fill="black"/>
<path d="M100.598 65.56H100.16V79.2352H100.598V65.56Z" fill="black"/>
<path d="M111.747 65.56H111.309V79.2352H111.747V65.56Z" fill="black"/>
<path d="M122.896 65.56H122.458V79.2352H122.896V65.56Z" fill="black"/>
<path d="M134.045 65.56H133.607V79.2352H134.045V65.56Z" fill="black"/>
<path d="M73.2881 66.2106H68.528V79.4149H73.2881V66.2106Z" fill="#45467A"/>
<path d="M134.086 66.2106H68.528V68.7291H134.086V66.2106Z" fill="#545F88"/>
<path d="M136.95 66.521V65.0804H68.9231H67.6067V66.521V78.6947V80.1351H68.9231H136.95V78.6947H68.9231V66.521H136.95Z" fill="#F9F3F4"/>
<path d="M109.305 91.9995H97.8608V106.768H109.305V91.9995Z" fill="#413A64"/>
<path d="M107.647 94.0452H97.8608V106.768H107.647V94.0452Z" fill="#57638F"/>
<path d="M136.386 39.5095H67.5586V40.1917H136.386V39.5095Z" fill="#C5C3C1"/>
<path d="M136.386 59.0032H67.5586V59.6854H136.386V59.0032Z" fill="#C5C3C1"/>
<path d="M136.386 80.1351H67.5586V80.8173H136.386V80.1351Z" fill="#C5C3C1"/>
<path d="M136.386 86.2891L109.305 91.9995H97.8608H80.1073V86.2891H136.386Z" fill="#C0BFBD"/>
<path d="M156.871 86.2891H140.057V106.768H156.871V86.2891Z" fill="#9793AE"/>
<path d="M151.501 91.9995H140.057V106.768H151.501V91.9995Z" fill="#413A64"/>
<path d="M149.843 94.0452H140.057V106.768H149.843V94.0452Z" fill="#57638F"/>
<path d="M176.034 102.162C175.767 103.248 175.398 104.311 174.935 105.326C174.775 105.682 174.597 106.269 174.365 106.768H160.449C160.173 105.517 159.839 104.102 159.772 102.789C159.772 102.731 159.768 102.669 159.768 102.611C159.755 102.255 159.763 101.904 159.808 101.57C159.808 101.525 159.817 101.481 159.821 101.436C160.204 98.7125 162.821 97.1193 164.085 100.119C163.738 99.2021 164.396 98.0495 165.362 97.8848C166.319 97.7157 167.316 98.5613 167.316 99.5271C167.342 98.4678 167.458 97.4131 167.672 96.3762C167.792 95.802 168.015 95.139 168.655 95.0499C169.109 94.9877 169.528 95.2902 169.71 95.7086C170.008 96.3806 169.79 97.0704 169.523 97.7113C169.764 97.204 170.12 96.7589 170.547 96.4029C171.116 95.9312 171.967 96.4563 171.793 97.1729C171.655 97.7559 171.432 98.3166 171.139 98.8374C171.659 98.0273 172.376 97.3509 173.213 96.8747C173.488 96.7189 173.813 96.581 174.112 96.6879C174.708 96.9015 174.61 97.8049 174.236 98.3123C173.858 98.8241 173.293 99.2825 173.293 99.9189C173.635 99.3137 174.045 98.6594 174.788 98.566C175.22 98.517 175.66 98.7751 175.732 99.2068C175.798 99.6207 175.496 99.8922 175.215 100.124C174.566 100.658 173.92 101.192 173.271 101.726C173.76 101.365 174.33 101.125 174.922 101.009C175.603 100.88 176.203 101.49 176.034 102.162Z" fill="#83BB3A"/>
<path d="M161.913 105.442C161.682 105.762 161.41 106.278 161.281 106.768H154.944C154.917 106.185 154.766 105.824 154.481 105.041C154.24 104.396 153.746 103.417 154.623 102.976C154.859 102.874 155.139 102.905 155.353 103.047C155.273 102.722 155.188 102.397 155.108 102.073C155.033 101.766 154.957 101.427 155.202 101.156C155.469 100.871 155.918 100.884 156.234 101.107C156.595 101.36 156.746 101.752 156.835 102.17C156.791 101.61 156.906 101.036 157.151 100.528C157.467 99.8829 158.442 100.101 158.486 100.818C158.517 101.352 158.451 101.894 158.282 102.406C158.406 102.13 158.531 101.846 158.749 101.632C158.967 101.418 159.296 101.294 159.577 101.405C159.67 101.441 159.746 101.498 159.808 101.57C160.004 101.788 160.053 102.144 159.959 102.437C159.955 102.446 159.955 102.455 159.946 102.464C159.973 102.446 159.999 102.428 160.031 102.411C160.395 102.197 160.947 102.228 161.17 102.589C161.339 102.865 161.268 103.234 161.081 103.497C160.987 103.63 160.872 103.737 160.747 103.835C161.183 103.572 161.686 103.421 162.055 103.728C162.545 104.133 162.287 104.93 161.913 105.442Z" fill="#547820"/>
<path d="M187 106.622H20.7225V106.914H187V106.622Z" fill="#7794B5"/>
<path d="M120.024 0.140198H80.2081V10.1224H120.024V0.140198Z" fill="#7794B5"/>
<path d="M89.0445 4.08667H86.9959V1.98926H85.9167V7.21441H86.9959V4.98211H89.0445V7.21441H90.1197V1.98926H89.0445V4.08667Z" fill="white"/>
<path d="M92.8345 3.09326C92.2131 3.09326 91.7422 3.2534 91.4219 3.57367C91.1016 3.89394 90.9413 4.34986 90.9413 4.94114V5.48504C90.9413 6.07387 91.1016 6.52762 91.4219 6.84657C91.7422 7.16543 92.2131 7.32482 92.8345 7.32482C93.4559 7.32482 93.9254 7.16534 94.243 6.84657C94.5605 6.52762 94.7193 6.07387 94.7193 5.48504V4.94114C94.7193 4.34977 94.5599 3.89394 94.2407 3.57367C93.9219 3.2533 93.4531 3.09326 92.8345 3.09326ZM93.6726 5.53807C93.6726 5.84337 93.601 6.07783 93.4579 6.24135C93.3147 6.40488 93.1068 6.48664 92.8345 6.48664C92.5589 6.48664 92.3499 6.40498 92.2067 6.24135C92.0636 6.07783 91.9922 5.84337 91.9922 5.53807V4.88811C91.9922 4.57735 92.0636 4.3395 92.2067 4.17456C92.3499 4.00971 92.5589 3.92729 92.8345 3.92729C93.1068 3.92729 93.3148 4.00971 93.4579 4.17456C93.601 4.3395 93.6726 4.57744 93.6726 4.88811V5.53807Z" fill="white"/>
<path d="M97.9657 5.08017C97.7612 4.98475 97.49 4.90176 97.1521 4.83074C96.9202 4.77629 96.7402 4.72523 96.6122 4.67747C96.4842 4.62981 96.3963 4.57593 96.3487 4.51593C96.3008 4.45602 96.2772 4.38518 96.2772 4.30341V4.28288C96.2772 4.20931 96.2988 4.14667 96.3424 4.09477C96.386 4.04305 96.459 4.00283 96.5612 3.9741C96.6636 3.94556 96.803 3.93114 96.9804 3.93114C97.2528 3.93114 97.5077 3.96176 97.7447 4.02327C97.982 4.08459 98.196 4.16014 98.3867 4.2501L98.2926 3.41607C98.1317 3.33148 97.931 3.25867 97.6897 3.19735C97.4485 3.13602 97.171 3.10541 96.8578 3.10541C96.3288 3.10541 95.9295 3.20139 95.6597 3.39356C95.3899 3.58582 95.255 3.87124 95.255 4.2501V4.28693C95.255 4.50227 95.2972 4.6869 95.3816 4.84091C95.466 4.99492 95.6058 5.12435 95.8009 5.22938C95.9957 5.33432 96.2606 5.42625 96.596 5.50528C96.8388 5.55992 97.0267 5.61098 97.1602 5.65855C97.2939 5.7063 97.3872 5.75877 97.4402 5.81595C97.4935 5.87332 97.5201 5.94689 97.5201 6.03666V6.06115C97.5201 6.19472 97.4613 6.29504 97.3444 6.36173C97.2269 6.42842 97.0375 6.46186 96.776 6.46186C96.476 6.46186 96.2016 6.42654 95.9521 6.35561C95.7028 6.28477 95.4744 6.20159 95.2674 6.10617L95.3614 7.01377C95.5357 7.09007 95.7476 7.15893 95.9972 7.22025C96.2464 7.28157 96.532 7.31219 96.8536 7.31219C97.4234 7.31219 97.8487 7.20998 98.1294 7.00557C98.41 6.80107 98.5506 6.49182 98.5506 6.07735V6.02827C98.5506 5.78844 98.5041 5.59421 98.4114 5.44566C98.3185 5.29767 98.17 5.17569 97.9657 5.08017Z" fill="white"/>
<path d="M101.547 3.11365C101.283 3.11365 101.064 3.15528 100.891 3.23827C100.718 3.32154 100.583 3.43467 100.486 3.57767C100.389 3.72085 100.319 3.87966 100.275 4.05412H100.233L100.267 3.2037H99.2208V8.62102H100.263V7.30036L100.239 6.36404H100.28C100.323 6.55488 100.396 6.72123 100.498 6.86281C100.601 7.00458 100.735 7.11432 100.901 7.19194C101.067 7.26965 101.27 7.30846 101.51 7.30846C102.004 7.30846 102.374 7.15247 102.62 6.84049C102.867 6.52832 102.99 6.07249 102.99 5.47283V4.91669C102.99 4.32249 102.868 3.87345 102.622 3.56956C102.377 3.26568 102.019 3.11365 101.547 3.11365ZM101.936 5.52181C101.936 5.82438 101.866 6.05271 101.727 6.20654C101.588 6.36055 101.386 6.43751 101.122 6.43751C100.947 6.43751 100.795 6.40482 100.666 6.33936C100.536 6.27389 100.436 6.17583 100.364 6.04499C100.291 5.91405 100.252 5.75335 100.247 5.5626V4.57626C100.283 4.46605 100.334 4.36554 100.406 4.27878C100.488 4.18053 100.59 4.10225 100.713 4.04366C100.836 3.98507 100.973 3.95568 101.126 3.95568C101.393 3.95568 101.595 4.03208 101.731 4.18468C101.868 4.33737 101.936 4.56354 101.936 4.86346V5.52181H101.936Z" fill="white"/>
<path d="M104.295 1.64166C104.096 1.64166 103.949 1.68942 103.855 1.78484C103.761 1.88026 103.714 2.01101 103.714 2.17727V2.19762C103.714 2.36407 103.761 2.49406 103.855 2.58816C103.949 2.68217 104.096 2.72918 104.295 2.72918C104.491 2.72918 104.637 2.68283 104.732 2.59014C104.828 2.49745 104.875 2.3667 104.875 2.19752V2.17718C104.875 2.01092 104.828 1.88017 104.732 1.78475C104.637 1.68952 104.491 1.64166 104.295 1.64166Z" fill="white"/>
<path d="M104.818 3.20361H103.771V7.21446H104.818V3.20361Z" fill="white"/>
<path d="M107.615 6.39687C107.364 6.39687 107.188 6.34572 107.089 6.24342C106.99 6.14131 106.94 5.98117 106.94 5.76301V4.06227H108.289L108.379 3.23634H106.914L106.952 2.14478L105.91 2.25103L105.913 3.23634H105.321V4.06227H105.901V5.91843C105.901 6.221 105.946 6.4758 106.036 6.68304C106.126 6.89027 106.273 7.04476 106.476 7.14706C106.679 7.24926 106.95 7.30032 107.291 7.30032C107.493 7.30032 107.682 7.28261 107.858 7.2471C108.033 7.21177 108.189 7.16269 108.326 7.09996L108.416 6.22495C108.301 6.27686 108.176 6.3184 108.04 6.34977C107.903 6.38123 107.762 6.39687 107.615 6.39687Z" fill="white"/>
<path d="M112.016 3.5552C111.881 3.4108 111.7 3.29964 111.474 3.22193C111.248 3.14422 110.971 3.10541 110.644 3.10541C110.423 3.10541 110.217 3.12312 110.027 3.15844C109.836 3.19395 109.663 3.23955 109.509 3.2955C109.355 3.35136 109.218 3.4107 109.098 3.47334L109.009 4.30737C109.213 4.21195 109.436 4.1283 109.677 4.05596C109.918 3.9838 110.176 3.94763 110.452 3.94763C110.776 3.94763 111.01 4.00895 111.153 4.1316C111.285 4.24492 111.354 4.4205 111.364 4.65261L110.329 4.7939C109.809 4.86474 109.428 4.9937 109.189 5.1803C108.949 5.367 108.829 5.65534 108.829 6.04504V6.15958C108.829 6.52752 108.933 6.81096 109.141 7.00991C109.35 7.20895 109.653 7.30833 110.051 7.30833C110.335 7.30833 110.563 7.26688 110.738 7.1837C110.913 7.10053 111.048 6.9889 111.145 6.84845C111.242 6.7081 111.312 6.55201 111.355 6.38029H111.395L111.363 7.21432H112.398V4.73663C112.398 4.49407 112.368 4.27252 112.308 4.07225C112.248 3.87208 112.15 3.6997 112.016 3.5552ZM111.21 6.17804C111.127 6.27205 111.021 6.3477 110.893 6.40487C110.765 6.46205 110.611 6.49069 110.431 6.49069C110.229 6.49069 110.082 6.44915 109.988 6.36606C109.894 6.28289 109.847 6.16646 109.847 6.0164V5.97552C109.847 5.82292 109.895 5.70715 109.992 5.62802C110.088 5.54899 110.251 5.49455 110.48 5.4645L111.371 5.33582V5.8995C111.335 6.00086 111.284 6.09468 111.21 6.17804Z" fill="white"/>
<path d="M114.315 1.80951H113.264V7.21458H114.315V1.80951Z" fill="white"/>
<path d="M86.1795 10.1224H84.4849V14.8408H86.1795V10.1224Z" fill="#7794B5"/>
<path d="M115.747 10.1224H114.053V14.8408H115.747V10.1224Z" fill="#7794B5"/>
<path d="M29.4214 130.176V131.452C29.4214 131.452 28.687 133.587 28.687 137.577H40.2012V136.405C40.2012 134.791 38.8929 133.482 37.2789 133.482H36.0476C35.3631 133.482 34.7872 132.969 34.7085 132.289L34.444 130.003L29.4214 130.176Z" fill="#1A1C22"/>
<path d="M9.40332 130.613C9.40332 130.613 8.2834 135.617 8.56336 138.207H15.8429C15.8429 138.207 16.0528 133.79 14.4779 133.307L14.8979 130.613H9.40332Z" fill="#1A1C22"/>
<path d="M38.6978 99.113L38.3347 102.158L35.0211 129.982L28.9318 130.193C28.9318 130.193 26.6167 109.766 26.9561 99.939C30.3272 99.8319 34.2274 99.5799 38.6978 99.113Z" fill="#2B2F35"/>
<path d="M23.4402 100C23.348 100.41 23.2063 101.041 23.0244 101.846L23.0047 101.933L22.9646 102.111L22.8425 102.653C21.2298 109.773 17.354 126.663 15.9831 130.612H8.7032C8.7032 130.612 7.02356 120.113 11.4332 99.3248L11.4726 99.1996C13.6979 99.5745 17.5808 100.018 23.4394 100.001L23.4402 100Z" fill="#2B2F35"/>
<path d="M43.1412 63.2771C40.3411 65.867 37.2614 64.1173 37.2614 64.1173L39.1678 77.0196L40.682 87.265L42.371 98.6948C41.1064 98.85 39.8827 98.9893 38.6984 99.113C34.2273 99.5799 30.327 99.8319 26.9561 99.939C26.8616 99.9413 26.7678 99.9444 26.675 99.9469C26.5324 99.9516 26.3907 99.9556 26.2505 99.9587C26.108 99.9626 25.9662 99.9666 25.8261 99.9697C24.9961 99.9886 24.2008 99.9988 23.4393 100C17.5806 100.018 13.6978 99.5744 11.4725 99.1995C9.86687 98.9295 9.12356 98.6948 9.12356 98.6948L11.6741 75.9346L12.8332 65.5876C10.8031 64.9576 8.28331 62.0874 8.28331 62.0874C3.13107 56.4107 4.22565 49.704 5.61544 45.718C6.34858 43.6155 7.90614 41.902 9.93064 40.9745L17.7224 37.4034L19.5059 36.5861L21.0761 36.749C22.3423 37.594 24.3551 38.7681 26.5985 39.4326C26.5985 39.4326 27.6835 38.687 27.9561 37.4616L28.512 37.5191L36.7998 41.7736C38.2259 42.5059 39.3409 43.7273 39.9409 45.214L42.5111 51.5884C42.5113 51.5884 45.9406 60.6872 43.1412 63.2771Z" fill="#FDFDFD"/>
<path d="M43.1412 63.2771C40.3411 65.867 37.2614 64.1173 37.2614 64.1173L39.1678 77.0196L40.682 87.265L42.371 98.6948C41.1064 98.85 39.8827 98.9893 38.6984 99.113C34.2273 99.5799 30.327 99.8319 26.9561 99.939C26.8616 99.9413 26.7678 99.9444 26.675 99.9469C26.5324 99.9516 26.3907 99.9556 26.2505 99.9587C26.108 99.9626 25.9662 99.9666 25.8261 99.9697C24.9961 99.9886 24.2008 99.9988 23.4393 100C17.5806 100.018 13.6978 99.5744 11.4725 99.1995C9.86687 98.9295 9.12356 98.6948 9.12356 98.6948L11.6741 75.9346L12.8332 65.5876C10.8031 64.9576 8.28331 62.0874 8.28331 62.0874C3.13107 56.4107 4.22565 49.704 5.61544 45.718C6.34858 43.6155 7.90614 41.902 9.93064 40.9745L17.7224 37.4034L19.5059 36.5861L21.0761 36.749C22.3423 37.594 24.3551 38.7681 26.5985 39.4326C26.5985 39.4326 27.6835 38.687 27.9561 37.4616L28.512 37.5191L36.7998 41.7736C38.2259 42.5059 39.3409 43.7273 39.9409 45.214L42.5111 51.5884C42.5113 51.5884 45.9406 60.6872 43.1412 63.2771Z" stroke="#CCCCCC" stroke-miterlimit="10"/>
<path d="M33.481 55.9292C33.481 55.9292 36.2293 52.2161 37.7986 52.5214C39.3679 52.8267 37.4481 54.1406 37.3432 54.2176C37.2381 54.2947 36.5849 54.8546 36.5149 54.9129C36.4449 54.9712 35.7683 55.4027 35.7683 55.4027L34.8227 56.0083L33.481 55.9292Z" fill="#CCCCCC"/>
<path d="M37.2615 64.1174C21.9323 68.2467 12.8334 65.5875 12.8334 65.5875C19.0629 66.1474 27.5318 64.9575 27.5318 64.9575C21.3512 63.707 16.5706 57.4161 16.4965 57.3177L22.8481 60.1848L23.3788 60.5533C30.8517 64.4513 37.2615 64.1174 37.2615 64.1174Z" fill="#CCCCCC"/>
<path d="M10.5933 43.1654C10.5933 43.1654 13.9064 51.0982 13.8597 55.8578L14.3496 56.0211C14.3496 56.0211 14.6763 55.3912 15.8428 54.7379L10.5933 43.1654Z" fill="#CCCCCC"/>
<path d="M39.4733 56.3469C38.326 56.2295 36.2527 56.091 33.9597 55.9571L33.9479 55.928C33.9479 55.928 35.3015 53.9917 36.7944 53.198C36.8472 53.1696 36.8999 53.142 36.9519 53.1145C37.4929 52.8287 37.9914 52.5743 38.415 52.3909L38.4158 52.3901C39.104 52.0917 39.5946 51.9783 39.7457 52.2185C39.9923 52.6099 38.4725 53.8674 38.3851 53.939C38.4694 53.8894 39.8789 53.0603 40.4986 53.4083C41.1176 53.7555 38.9985 55.0981 38.8686 55.1808C38.9757 55.1368 40.4923 54.5091 40.7962 54.7029C41.1112 54.9043 40.2419 55.8642 39.4733 56.3469Z" fill="#F38372"/>
<path d="M38.4159 52.3899L38.4151 52.3907C38.2309 52.471 38.0316 52.5639 37.8214 52.6679C37.549 52.8017 37.2576 52.9529 36.952 53.1144C36.952 53.1144 37.1615 48.3417 37.8206 45.692C37.9324 45.2447 38.056 44.858 38.1947 44.5652C38.1947 44.5652 37.5866 50.8592 38.4159 52.3899Z" fill="#CCCCCC"/>
<path d="M23.1576 55.4028C23.1576 55.4028 22.9127 60.1976 22.8481 60.1849C22.7962 60.1747 19.4684 58.7668 18.118 58.1951C17.7456 58.0376 17.3841 57.8534 17.0377 57.6439L14.3501 56.0209C14.4218 55.8887 14.528 55.7572 14.6501 55.6304C15.1218 55.143 15.8431 54.7382 15.8431 54.7382C17.1731 53.9335 18.0716 55.065 18.0716 55.065L22.3057 55.3461L23.1576 55.4028Z" fill="#F38372"/>
<path d="M28.0924 36.8609L28.5342 37.5891L28.5492 37.6379L28.5705 37.708L28.5784 37.7347L28.5957 37.793L28.6147 37.8584L28.6312 37.9159C28.9469 39.0301 29.7698 42.3736 29.6013 46.4108C29.5391 47.9038 29.3414 49.4929 28.9319 51.0985C28.9319 51.0985 27.5098 48.8763 26.0955 46.6958L26.0948 46.6943C24.8844 44.828 23.6805 42.9925 23.3789 42.605C22.7261 41.7656 19.4125 38.6859 19.5062 36.5858L19.6928 35.7455C19.6928 35.7455 22.819 38.3126 26.5988 39.4324C26.5988 39.4324 28.1272 38.3819 28.0107 36.7259L28.0924 36.8609Z" fill="#474B51"/>
<path d="M28.4397 40.6287L27.8357 42.302H26.2254L24.7749 41.1767C25.8742 40.4365 26.5868 39.5664 26.5868 39.5664C26.5868 39.5664 27.6152 40.2004 28.4397 40.6287Z" fill="#1D2025"/>
<path d="M29.6011 46.4109C29.5389 47.9039 29.3412 49.493 28.9318 51.0986C28.9318 51.0986 27.5096 48.8764 26.0954 46.696L26.0946 46.6944L26.2254 42.302H27.8357L29.6011 46.4109Z" fill="#1D2025"/>
<path d="M27.3224 33.5646L28.0106 36.7262C28.0287 36.9868 28.0066 37.2325 27.9562 37.4617C27.6838 38.6869 26.5986 39.4327 26.5986 39.4327C24.3552 38.7681 22.3425 37.594 21.0763 36.7491C20.2093 36.1703 19.6927 35.7459 19.6927 35.7459L19.8675 31.8149C19.8675 31.8149 18.1525 30.4495 17.9076 29.5399C17.9076 29.5399 17.7855 30.3273 16.7178 29.8376C15.65 29.347 14.0058 26.5823 16.2799 25.0247C16.2799 25.0247 17.4296 24.8035 17.8958 25.457L18.736 24.9885C18.736 24.9885 19.203 18.4102 20.3456 17.6873C21.489 16.9637 23.2277 17.2904 24.2655 17.6172C25.3041 17.944 29.3752 18.7952 30.2618 18.7842C31.1485 18.7724 31.9588 19.1621 32.0115 23.4498C32.0115 23.4498 34.3912 31.4645 27.3224 33.5646Z" fill="#F38372"/>
<path d="M22.9109 42.0983L22.8909 42.0222C23.5003 41.8615 24.1268 41.566 24.753 41.1441C25.8344 40.416 26.5493 39.5502 26.5565 39.5415L26.5783 39.515L26.6076 39.5329C26.6179 39.5393 27.6443 40.171 28.458 40.5938C28.8561 40.8005 29.1384 40.9241 29.2969 40.9613L29.2789 41.0379C29.114 40.9992 28.8256 40.8733 28.4217 40.6637C27.6822 40.2795 26.7684 39.7237 26.5953 39.6178C26.466 39.7695 25.7821 40.5462 24.7971 41.2095C24.1635 41.6363 23.529 41.9354 22.9109 42.0983Z" fill="#1D2025"/>
<path d="M32.0115 23.4498C31.9587 19.1622 31.1484 18.7724 30.2618 18.7842C29.3751 18.7952 25.304 17.9439 24.2654 17.6172C23.2275 17.2904 21.4889 16.9636 20.3456 17.6872C19.2029 18.4101 18.736 24.9884 18.736 24.9884L17.8957 25.457C17.4296 24.8034 16.2799 25.0247 16.2799 25.0247C16.2799 25.0247 12.8679 17.1156 17.873 16.5904C17.873 16.5904 18.1525 12.0413 27.3223 13.1611C27.3223 13.1611 27.3223 13.721 26.8317 14.2809C26.8317 14.2809 30.087 14.6659 30.9965 14.0706C30.9965 14.0706 30.8217 15.4707 30.1217 16.4157C30.1217 16.4157 34.3565 15.6809 32.0115 23.4498Z" fill="#1D2025"/>
<path d="M19.8677 31.8149C19.8677 31.8149 21.1864 34.3696 27.3224 33.5646C27.3224 33.5646 22.0491 36.096 19.8677 31.8149Z" fill="#8A3731"/>
<path d="M27.3224 66.4301L26.7161 97.8011L26.683 99.5288L26.6751 99.9469C26.5326 99.9516 26.3908 99.9556 26.2506 99.9587C26.1081 99.9627 25.9663 99.9666 25.8262 99.9697L25.8466 99.5122L25.9026 98.2578L27.3224 66.4301Z" fill="#CCCCCC"/>
<path d="M14.013 76.9266L13.8464 87.1448L21.0085 87.2616L21.1751 77.0434L14.013 76.9266Z" fill="#EAEAEA"/>
<path d="M40.6822 87.2651L33.5975 87.1493L33.7637 76.9315L39.1679 77.0196L40.6822 87.2651Z" fill="#EAEAEA"/>
<path d="M27.3225 66.0498C18.2464 67.0498 11.6743 75.9345 11.6743 75.9345L12.8334 65.5875L16.5195 65.8671L27.3225 66.0498Z" fill="#CCCCCC"/>
<path d="M13.8597 55.8579C13.615 55.9164 13.38 56.0052 13.1565 56.1152C12.9322 56.2233 12.7181 56.3504 12.5159 56.4934C12.1118 56.7805 11.7605 57.1359 11.4671 57.5333C11.1723 57.9307 10.9384 58.3719 10.7521 58.8332C10.5662 59.295 10.4235 59.7764 10.3132 60.2676C10.3631 59.7667 10.467 59.2682 10.6371 58.7898L10.7011 58.6105L10.7753 58.4349C10.8223 58.3167 10.8825 58.2043 10.9368 58.0891C11.0574 57.8648 11.1884 57.6453 11.3404 57.4398C11.4942 57.236 11.6617 57.0421 11.8464 56.8655C12.032 56.6899 12.2319 56.5291 12.4471 56.3919C12.8761 56.1186 13.3578 55.9167 13.8597 55.8579Z" fill="#CCCCCC"/>
<path d="M29.0108 70.761C29.4151 70.761 29.7429 70.4332 29.7429 70.0289C29.7429 69.6246 29.4151 69.2968 29.0108 69.2968C28.6065 69.2968 28.2787 69.6246 28.2787 70.0289C28.2787 70.4332 28.6065 70.761 29.0108 70.761Z" fill="#1D2025"/>
<path d="M29.0108 81.2546C29.4151 81.2546 29.7429 80.9269 29.7429 80.5225C29.7429 80.1182 29.4151 79.7904 29.0108 79.7904C28.6065 79.7904 28.2787 80.1182 28.2787 80.5225C28.2787 80.9269 28.6065 81.2546 29.0108 81.2546Z" fill="#1D2025"/>
<path d="M29.0108 91.748C29.4151 91.748 29.7429 91.4202 29.7429 91.0159C29.7429 90.6116 29.4151 90.2838 29.0108 90.2838C28.6065 90.2838 28.2787 90.6116 28.2787 91.0159C28.2787 91.4202 28.6065 91.748 29.0108 91.748Z" fill="#1D2025"/>
<path d="M37.8214 52.6679C37.549 52.8017 37.2576 52.9529 36.952 53.1144C36.952 53.1144 37.1615 48.3417 37.8206 45.692C37.8214 45.6912 37.8214 45.6912 37.8214 45.6912C37.8214 45.6912 37.2575 51.397 37.8214 52.6679Z" fill="#B6B6B5"/>
<path d="M29.1682 55.6917C29.3894 55.7511 33.225 44.0518 33.225 44.0518L28.8269 54.003L28.6934 55.6709L29.1682 55.6917Z" fill="#B6B6B5"/>
<path d="M31.0319 42.6052L33.2249 44.0517L28.6934 55.6709L20.4392 45.592L22.0259 43.399L19.8328 43.5856C17.8257 41.9989 17.7225 37.4034 17.7225 37.4034L19.5061 36.5861C19.4123 38.6862 22.7259 41.7659 23.3787 42.6053C23.6804 42.9927 24.8843 44.8283 26.0946 46.6945L26.0954 46.6961C27.5097 48.8765 28.9318 51.0987 28.9318 51.0987C29.3413 49.4931 29.5389 47.9041 29.6012 46.4111C29.7697 42.3739 28.9468 39.0304 28.631 37.9161L28.6145 37.8587L28.5956 37.7933C28.59 37.7729 28.5837 37.7532 28.5783 37.735L28.5704 37.7082C28.5624 37.6822 28.5554 37.6586 28.5491 37.6382L28.5341 37.5894C28.5215 37.5484 28.5144 37.5256 28.5128 37.52L33.2249 41.9053L31.0319 42.6052Z" fill="#CCCCCC"/>
<path d="M40.271 56.4532C40.0944 56.4255 39.9163 56.4121 39.7383 56.3985C39.5603 56.3843 39.3822 56.3722 39.2041 56.361C38.8476 56.3389 38.4909 56.321 38.1341 56.3047L35.9936 56.2012C34.5665 56.1351 33.1396 56.0618 31.7128 55.9867L29.5728 55.8679L27.4333 55.7385C26.0071 55.6482 24.5815 55.5446 23.1562 55.4296L23.1844 55.4044L22.8423 60.2674L23.1305 55.4009L23.132 55.3752L23.1587 55.3757C23.8735 55.3875 24.5886 55.3918 25.3031 55.4124C26.0178 55.4282 26.732 55.4536 27.4464 55.4768C28.1605 55.5046 28.8747 55.5323 29.5886 55.5653C30.3024 55.6011 31.0164 55.6331 31.7299 55.6745C33.157 55.756 34.5838 55.8458 36.009 55.9621C36.7217 56.0185 37.4339 56.0836 38.1455 56.1567C38.5011 56.1957 38.8565 56.2362 39.2115 56.2808C39.5662 56.3262 39.9224 56.3712 40.271 56.4532Z" fill="#CCCCCC"/>
<path d="M23.1576 55.4027C23.1576 55.4027 22.9127 60.1975 22.8481 60.1849C22.7962 60.1746 19.4684 58.7667 18.118 58.1951C17.7456 58.0376 17.3841 57.8533 17.0377 57.6438L14.3501 56.0209C14.4218 55.8886 14.528 55.7571 14.6501 55.6303L14.7698 55.6713L21.9325 58.8912L22.3057 55.3461L23.1576 55.4027Z" fill="#E35D55"/>
<path d="M23.4394 100L23.0245 101.846L23.0048 101.933L22.9647 102.111L22.8426 102.653L15.8524 102.475L8.7032 130.612C8.7032 130.612 7.02356 120.113 11.4332 99.3248L11.4726 99.1996C13.6979 99.5744 17.5809 100.018 23.4394 100Z" fill="#1A1D22"/>
<path d="M38.6978 99.113L38.3347 102.158L31.5565 102.579L28.9319 130.193C28.9319 130.193 26.6168 109.766 26.9562 99.939C30.3272 99.8319 34.2274 99.5799 38.6978 99.113Z" fill="#1A1D22"/>
<path d="M18.7893 49.71C19.649 49.71 20.3459 49.0131 20.3459 48.1534C20.3459 47.2937 19.649 46.5967 18.7893 46.5967C17.9296 46.5967 17.2327 47.2937 17.2327 48.1534C17.2327 49.0131 17.9296 49.71 18.7893 49.71Z" fill="#CCCCCC"/>
<path d="M18.5047 47.8914C16.2293 43.0855 15.7079 39.5555 16.9551 37.3993C17.9359 35.7035 19.6423 35.5485 19.7145 35.5427L19.7584 36.0922L19.7364 35.8175L19.7592 36.0922C19.6983 36.0975 18.2577 36.2376 17.4266 37.685C16.6403 39.0542 16.2755 41.8955 19.0028 47.6557L18.5047 47.8914Z" fill="#1A1D22"/>
<path d="M18.8359 49.3301C19.6956 49.3301 20.3925 48.6332 20.3925 47.7735C20.3925 46.9138 19.6956 46.2169 18.8359 46.2169C17.9762 46.2169 17.2793 46.9138 17.2793 47.7735C17.2793 48.6332 17.9762 49.3301 18.8359 49.3301Z" fill="#1A1D22"/>
<path d="M18.8358 48.7418C19.3706 48.7418 19.8041 48.3083 19.8041 47.7735C19.8041 47.2387 19.3706 46.8052 18.8358 46.8052C18.3011 46.8052 17.8676 47.2387 17.8676 47.7735C17.8676 48.3083 18.3011 48.7418 18.8358 48.7418Z" fill="#CCCCCC"/>
<path d="M34.1685 47.1604L33.6197 47.1095C33.9787 43.2363 33.3202 40.3062 31.7151 38.6362C30.3209 37.1856 28.6628 37.1083 28.0145 37.1426L27.9855 36.5922C28.7092 36.5541 30.5607 36.6394 32.1127 38.2542C33.8564 40.0688 34.5481 43.0652 34.1685 47.1604Z" fill="#1A1D22"/>
<path d="M33.3007 52.712C33.2252 52.7057 33.1446 52.6952 33.0558 52.6802L32.5229 52.59L32.5572 52.3874L33.0901 52.4777C33.2421 52.5035 33.3668 52.515 33.4826 52.5139C33.9809 52.5097 34.3839 52.3439 34.6804 52.0211C35.3774 51.2617 35.2793 49.878 35.2781 49.8642L35.4829 49.8483C35.4875 49.9087 35.5883 51.3356 34.8315 52.16C34.4952 52.5266 34.0419 52.7147 33.4842 52.7194C33.4255 52.7199 33.3649 52.7174 33.3007 52.712Z" fill="#B6B6B5"/>
<path d="M33.735 52.7484C33.6709 52.7431 33.6108 52.7353 33.5529 52.725C33.0039 52.6274 32.5883 52.3664 32.3176 51.9489C31.7088 51.0098 32.0461 49.6198 32.0608 49.561L32.2601 49.6106C32.2567 49.6242 31.93 50.9742 32.4904 51.8377C32.7289 52.2052 33.0985 52.4356 33.5888 52.5228C33.7029 52.543 33.8278 52.5525 33.9819 52.5525L34.5224 52.5523L34.5224 52.7577L33.982 52.7579C33.8919 52.7579 33.8106 52.7548 33.735 52.7484Z" fill="#B6B6B5"/>
<path d="M35.7386 50.3466L35.0224 50.2865L35.1314 48.9881C35.1912 48.2767 34.6609 47.6492 33.9494 47.5895C33.238 47.5298 32.6106 48.06 32.5509 48.7715L32.4419 50.0698L31.7257 50.0097L31.8347 48.7114C31.9276 47.6049 32.9032 46.7804 34.0096 46.8732C35.1161 46.9661 35.9406 47.9417 35.8477 49.0481L35.7386 50.3466Z" fill="#1A1D22"/>
<path d="M34.7705 52.8769L34.4785 52.8524C34.4012 52.8459 34.3436 52.7779 34.3501 52.7005L34.3571 52.617C34.3636 52.5396 34.4316 52.4821 34.5089 52.4887L34.8009 52.5132C34.8783 52.5197 34.9357 52.5877 34.9293 52.665L34.9223 52.7486C34.916 52.8259 34.8479 52.8834 34.7705 52.8769Z" fill="#B6B6B5"/>
<path d="M32.5802 52.693L32.2882 52.6685C32.2108 52.662 32.1533 52.594 32.1598 52.5166L32.1668 52.4331C32.1733 52.3557 32.2413 52.2982 32.3186 52.3048L32.6106 52.3293C32.688 52.3358 32.7455 52.4038 32.739 52.4811L32.7321 52.5647C32.7256 52.642 32.6576 52.6995 32.5802 52.693Z" fill="#B6B6B5"/>
</svg>
