<svg width="57" height="57" viewBox="0 0 57 57" fill="none" xmlns="http://www.w3.org/2000/svg">
<circle cx="28.5" cy="28.5" r="28.5" fill="#3E79D6"/>
<path fill-rule="evenodd" clip-rule="evenodd" d="M18.525 15.675C16.951 15.675 15.675 16.951 15.675 18.525V38.475C15.675 40.049 16.951 41.325 18.525 41.325H38.475C40.0491 41.325 41.325 40.049 41.325 38.475V18.525C41.325 16.951 40.0491 15.675 38.475 15.675H18.525ZM22.8 29.925C22.8 29.1379 22.1621 28.5 21.375 28.5C20.588 28.5 19.95 29.1379 19.95 29.925V35.625C19.95 36.412 20.588 37.05 21.375 37.05C22.1621 37.05 22.8 36.412 22.8 35.625V29.925ZM28.5 24.225C29.2871 24.225 29.925 24.8629 29.925 25.65V35.625C29.925 36.412 29.2871 37.05 28.5 37.05C27.713 37.05 27.075 36.412 27.075 35.625V25.65C27.075 24.8629 27.713 24.225 28.5 24.225ZM37.05 21.375C37.05 20.5879 36.4121 19.95 35.625 19.95C34.838 19.95 34.2 20.5879 34.2 21.375V35.625C34.2 36.412 34.838 37.05 35.625 37.05C36.4121 37.05 37.05 36.412 37.05 35.625V21.375Z" fill="white"/>
</svg>
