<svg width="10" height="10" viewBox="0 0 10 10" fill="none" xmlns="http://www.w3.org/2000/svg">
<g clip-path="url(#clip0_180_1570)">
<path d="M5.00004 0.833374C4.17595 0.833374 3.37037 1.07774 2.68517 1.53558C1.99996 1.99342 1.46591 2.64417 1.15054 3.40553C0.835179 4.16689 0.752665 5.00466 0.913437 5.81292C1.07421 6.62117 1.47105 7.3636 2.05376 7.94632C2.63648 8.52904 3.37891 8.92587 4.18717 9.08665C4.99542 9.24742 5.8332 9.1649 6.59456 8.84954C7.35592 8.53417 8.00666 8.00012 8.4645 7.31492C8.92234 6.62971 9.16671 5.82413 9.16671 5.00004C9.16671 4.45287 9.05894 3.91105 8.84954 3.40553C8.64015 2.9 8.33323 2.44067 7.94632 2.05376C7.55941 1.66685 7.10008 1.35994 6.59456 1.15054C6.08903 0.941148 5.54722 0.833374 5.00004 0.833374ZM5.00004 8.33337C4.34077 8.33337 3.69631 8.13788 3.14814 7.77161C2.59998 7.40533 2.17274 6.88474 1.92044 6.27565C1.66815 5.66657 1.60214 4.99634 1.73076 4.34974C1.85938 3.70314 2.17684 3.10919 2.64302 2.64302C3.10919 2.17684 3.70314 1.85937 4.34974 1.73076C4.99635 1.60214 5.66657 1.66815 6.27565 1.92044C6.88474 2.17273 7.40534 2.59998 7.77161 3.14814C8.13788 3.6963 8.33338 4.34077 8.33338 5.00004C8.33338 5.8841 7.98219 6.73194 7.35707 7.35706C6.73194 7.98218 5.8841 8.33337 5.00004 8.33337Z" fill="#474747"/>
<path d="M5.00007 2.5C4.88956 2.5 4.78358 2.5439 4.70544 2.62204C4.6273 2.70018 4.5834 2.80616 4.5834 2.91667V4.82917L3.45424 5.95417C3.41062 5.99152 3.37519 6.03749 3.35018 6.08918C3.32517 6.14087 3.31112 6.19718 3.3089 6.25456C3.30669 6.31194 3.31636 6.36917 3.3373 6.42263C3.35825 6.4761 3.39003 6.52466 3.43063 6.56527C3.47124 6.60588 3.5198 6.63765 3.57327 6.6586C3.62674 6.67955 3.68396 6.68922 3.74134 6.687C3.79873 6.68478 3.85503 6.67073 3.90672 6.64572C3.95842 6.62071 4.00438 6.58528 4.04174 6.54167L5.29174 5.29167C5.37024 5.21474 5.41517 5.1099 5.41674 5V2.91667C5.41674 2.80616 5.37284 2.70018 5.2947 2.62204C5.21656 2.5439 5.11058 2.5 5.00007 2.5Z" fill="#474747"/>
</g>
<defs>
<clipPath id="clip0_180_1570">
<rect width="10" height="10" fill="white"/>
</clipPath>
</defs>
</svg>
